<?xml version="1.0" encoding="utf-8"?>
<!-- Generator: Adobe Illustrator 23.0.1, SVG Export Plug-In . SVG Version: 6.00 Build 0)  -->
<svg version="1.1" id="Layer_1" xmlns="http://www.w3.org/2000/svg" xmlns:xlink="http://www.w3.org/1999/xlink" x="0px" y="0px"
	 viewBox="0 0 302.02 54" style="enable-background:new 0 0 302.02 54;" xml:space="preserve">
<style type="text/css">
	.st0{fill:#FFFFFF;}
	.st1{fill:#EE2D33;}
</style>
<g>
	<path class="st0" d="M31.19,27.34c0.17,0.14,0.38,0.21,0.6,0.21c0.14,0,0.29-0.03,0.42-0.1c0.33-0.16,0.54-0.5,0.54-0.87v-2.77
		H300.9c0.53,0,0.96-0.43,0.96-0.96V4.7c0-0.53-0.43-0.96-0.96-0.96H32.75V0.96c0-0.37-0.21-0.71-0.54-0.87
		c-0.33-0.16-0.73-0.12-1.02,0.11L14.86,13.02c-0.23,0.18-0.37,0.46-0.37,0.76c0,0.3,0.14,0.58,0.37,0.76L31.19,27.34z M31.79,0.96
		V4.7H300.9v18.15H31.79v3.73L15.45,13.77L31.79,0.96z"/>
	<path class="st0" d="M300.89,30.92h-2.28c-0.53,0-0.96,0.43-0.96,0.96v13.77c0,0.53,0.43,0.96,0.96,0.96h2.28
		c0.53,0,0.96-0.43,0.96-0.96V31.88C301.85,31.35,301.42,30.92,300.89,30.92z M300.88,45.65h-2.28V31.88h2.28V45.65z"/>
	<path class="st0" d="M301.33,47.57c-0.86-0.78-2.31-0.79-3.19,0c-0.32,0.29-0.71,0.85-0.71,1.8c0,0.37,0.06,0.71,0.18,1
		c0.12,0.31,0.3,0.58,0.51,0.78c0.22,0.22,0.49,0.38,0.79,0.48c0.26,0.09,0.54,0.13,0.82,0.13c0.61,0,1.16-0.2,1.59-0.58
		c0.47-0.42,0.71-1.03,0.71-1.81C302.02,48.6,301.79,48,301.33,47.57z M300.68,50.47c-0.26,0.23-0.57,0.34-0.95,0.34
		c-0.18,0-0.36-0.03-0.52-0.08c-0.16-0.05-0.31-0.14-0.43-0.26c-0.12-0.12-0.22-0.27-0.29-0.45c-0.07-0.18-0.11-0.39-0.11-0.65
		c0-0.48,0.13-0.85,0.4-1.08c0.26-0.24,0.58-0.36,0.95-0.36c0.38,0,0.69,0.12,0.95,0.35c0.25,0.23,0.38,0.6,0.38,1.09
		C301.06,49.88,300.93,50.24,300.68,50.47z"/>
	<path class="st0" d="M294.24,30.92h-2.28c-0.53,0-0.96,0.43-0.96,0.96v7.14c0,0.74-0.05,1.4-0.15,1.96
		c-0.09,0.5-0.24,0.91-0.44,1.23c-0.17,0.27-0.38,0.47-0.66,0.61c-0.3,0.15-0.7,0.23-1.18,0.23c-0.75,0-1.03-0.25-1.17-0.44
		c-0.28-0.36-0.42-1.01-0.42-1.86v-8.87c0-0.53-0.43-0.96-0.96-0.96h-2.29c-0.53,0-0.96,0.43-0.96,0.96v7.6
		c0,0.66-0.06,1.25-0.17,1.74c-0.1,0.43-0.24,0.79-0.44,1.06c-0.17,0.24-0.39,0.42-0.66,0.55c-0.3,0.14-0.69,0.21-1.15,0.21
		c-0.75,0-1.03-0.25-1.18-0.44c-0.28-0.36-0.43-1.01-0.43-1.86v-8.87c0-0.53-0.43-0.96-0.96-0.96h-2.28c-0.53,0-0.96,0.43-0.96,0.96
		v8.99c0,2,0.46,3.51,1.37,4.49c0.93,1,2.28,1.51,4.01,1.51c0.49,0,0.98-0.05,1.44-0.16c0.48-0.11,0.95-0.28,1.37-0.5
		c0.44-0.23,0.85-0.51,1.22-0.86c0.03-0.03,0.06-0.06,0.09-0.08c0.32,0.38,0.7,0.69,1.15,0.94c0.81,0.45,1.8,0.67,2.97,0.67
		c0.45,0,0.91-0.05,1.35-0.15c0.46-0.1,0.89-0.27,1.29-0.48c0.24-0.12,0.46-0.27,0.67-0.43l0,0.01c0.08,0.46,0.48,0.8,0.95,0.8h1.86
		c0.53,0,0.96-0.43,0.96-0.96V31.88C295.2,31.35,294.77,30.92,294.24,30.92z M294.24,45.65h-1.86l-0.33-1.86h-0.13
		c-0.2,0.36-0.44,0.67-0.72,0.93c-0.28,0.26-0.58,0.48-0.91,0.66c-0.33,0.18-0.68,0.3-1.05,0.39c-0.37,0.08-0.75,0.12-1.13,0.12
		c-1,0-1.84-0.18-2.5-0.55c-0.66-0.37-1.16-0.95-1.47-1.73h-0.1c-0.22,0.39-0.48,0.73-0.78,1.02c-0.31,0.28-0.64,0.52-1,0.71
		c-0.36,0.19-0.75,0.33-1.15,0.42c-0.4,0.09-0.81,0.14-1.23,0.14c-1.46,0-2.56-0.4-3.3-1.2c-0.74-0.8-1.11-2.08-1.11-3.83v-8.99
		h2.28v8.87c0,1.09,0.21,1.9,0.63,2.44c0.42,0.54,1.07,0.82,1.94,0.82c0.61,0,1.13-0.1,1.55-0.29c0.43-0.2,0.78-0.49,1.05-0.87
		c0.27-0.38,0.47-0.85,0.6-1.42c0.13-0.56,0.19-1.21,0.19-1.95v-7.6H286v8.87c0,1.09,0.21,1.9,0.62,2.44
		c0.41,0.54,1.06,0.82,1.94,0.82c0.64,0,1.18-0.11,1.62-0.33c0.44-0.22,0.78-0.54,1.05-0.97c0.26-0.43,0.45-0.95,0.56-1.57
		c0.11-0.62,0.17-1.33,0.17-2.13v-7.14h2.28V45.65z"/>
	<path class="st0" d="M271.37,39.66c1.21-0.92,1.83-2.24,1.83-3.93c0-0.82-0.12-1.55-0.37-2.17c-0.25-0.65-0.61-1.19-1.07-1.63
		c-0.46-0.44-1-0.76-1.62-0.97c-1.08-0.36-2.48-0.36-3.49-0.15c-0.49,0.1-0.95,0.27-1.35,0.48c-0.3,0.16-0.58,0.36-0.85,0.58
		l-0.05-0.22c-0.11-0.43-0.49-0.74-0.94-0.74h-1.64c-0.53,0-0.96,0.43-0.96,0.96v9.43c0,0.94,0.12,1.73,0.35,2.41
		c0.25,0.72,0.64,1.34,1.17,1.82c0.52,0.47,1.17,0.82,1.94,1.03c0.7,0.19,1.53,0.29,2.47,0.29c0.93,0,1.83-0.13,2.68-0.39
		c0.82-0.25,1.58-0.56,2.24-0.92c0.45-0.24,0.63-0.79,0.42-1.26l-0.8-1.72c-0.11-0.24-0.31-0.42-0.56-0.5
		c-0.25-0.09-0.52-0.06-0.75,0.06c-0.5,0.26-1.04,0.48-1.59,0.67c-0.5,0.17-1.05,0.25-1.63,0.25c-0.34,0-0.64-0.04-0.88-0.11
		c-0.18-0.05-0.33-0.14-0.45-0.25c-0.12-0.12-0.22-0.3-0.29-0.52c-0.08-0.26-0.13-0.62-0.13-1.04l1.38-0.05
		C268.61,40.98,270.23,40.53,271.37,39.66z M264.07,40.18v0.87c0,0.56,0.06,1.03,0.18,1.4c0.12,0.38,0.3,0.68,0.53,0.91
		c0.23,0.23,0.51,0.4,0.85,0.5c0.34,0.1,0.73,0.15,1.16,0.15c0.69,0,1.34-0.1,1.94-0.3c0.6-0.2,1.17-0.44,1.72-0.73l0.8,1.72
		c-0.62,0.33-1.31,0.62-2.07,0.85c-0.76,0.23-1.56,0.35-2.4,0.35c-0.85,0-1.59-0.09-2.21-0.26c-0.62-0.17-1.14-0.44-1.54-0.82
		c-0.41-0.37-0.71-0.85-0.91-1.42c-0.2-0.58-0.3-1.28-0.3-2.09v-9.43h1.64l0.46,1.91h0.1c0.28-0.38,0.55-0.7,0.83-0.97
		c0.28-0.27,0.58-0.5,0.9-0.67c0.33-0.18,0.69-0.3,1.09-0.39c0.4-0.08,0.86-0.12,1.39-0.12c0.58,0,1.11,0.08,1.59,0.24
		c0.49,0.16,0.91,0.41,1.26,0.75c0.36,0.34,0.63,0.77,0.83,1.28c0.2,0.51,0.3,1.12,0.3,1.82c0,1.37-0.48,2.42-1.45,3.16
		c-0.97,0.74-2.43,1.14-4.41,1.2L264.07,40.18z"/>
	<path class="st0" d="M267.66,33.48c-0.51,0-0.98,0.08-1.42,0.24c-0.43,0.16-0.81,0.4-1.13,0.72c-0.32,0.32-0.57,0.73-0.75,1.22
		c-0.18,0.49-0.27,1.06-0.27,1.72v1.24l1.79-0.09c0.75-0.03,1.38-0.12,1.89-0.25c0.51-0.13,0.92-0.32,1.22-0.56
		c0.31-0.24,0.52-0.53,0.66-0.86c0.13-0.34,0.2-0.72,0.2-1.15c0-0.77-0.2-1.33-0.61-1.69C268.85,33.65,268.32,33.48,267.66,33.48z
		 M268.76,36.5c-0.07,0.18-0.19,0.33-0.35,0.46c-0.2,0.16-0.49,0.29-0.87,0.39c-0.44,0.12-1.01,0.19-1.7,0.22l-0.78,0.04v-0.23
		c0-0.54,0.07-1.01,0.21-1.39c0.13-0.36,0.31-0.65,0.53-0.87c0.22-0.22,0.47-0.38,0.77-0.49c0.33-0.12,0.69-0.18,1.09-0.18
		c0.42,0,0.73,0.1,0.96,0.3c0.23,0.21,0.28,0.64,0.28,0.97C268.9,36.01,268.85,36.28,268.76,36.5z"/>
	<path class="st0" d="M258.57,25.97c-0.54-0.41-1.22-0.72-2-0.93c-0.75-0.2-1.62-0.3-2.59-0.3c-1.24,0-2.33,0.12-3.27,0.36
		c-0.97,0.25-1.8,0.61-2.45,1.09c-0.69,0.5-1.22,1.13-1.56,1.86c-0.33,0.71-0.5,1.51-0.5,2.39c0,0.61,0.09,1.2,0.27,1.75
		c0.2,0.6,0.52,1.13,0.97,1.57c0.44,0.43,1,0.77,1.65,1.01c0.64,0.24,1.41,0.35,2.3,0.35h2.21c0.22,0,0.44,0.01,0.64,0.03
		c0.13,0.01,0.24,0.04,0.3,0.06c0,0.07-0.01,0.13-0.03,0.17c-0.03,0.08-0.07,0.15-0.12,0.21c-0.07,0.08-0.14,0.15-0.22,0.21
		c-0.02,0.02-0.05,0.04-0.07,0.05c-0.06,0-0.13-0.01-0.19-0.01c-1.08-0.03-2.13,0.07-2.96,0.39c-0.71,0.27-1.32,0.65-1.81,1.14
		c-0.5,0.49-0.87,1.08-1.12,1.75c-0.23,0.64-0.35,1.35-0.35,2.09c0,0.68,0.1,1.31,0.29,1.87c0,0.01,0.01,0.02,0.01,0.03l-1.11,0.15
		c-0.48,0.06-0.83,0.47-0.83,0.95v1.42c0,0.53,0.43,0.96,0.96,0.96h4.41c0.24,0.07,0.52,0.13,0.85,0.17
		c0.38,0.05,0.74,0.08,1.09,0.08c0.92,0,1.74-0.13,2.46-0.38c0.74-0.27,1.38-0.66,1.89-1.17c0.51-0.51,0.9-1.13,1.16-1.85
		c0.24-0.69,0.37-1.47,0.37-2.32c0-0.51-0.07-1.02-0.2-1.5c-0.14-0.49-0.33-0.94-0.58-1.35c-0.24-0.4-0.55-0.77-0.9-1.09
		c0.15-0.15,0.27-0.3,0.39-0.45c0.39-0.54,0.58-1.17,0.58-1.89c0-0.57-0.14-1.1-0.41-1.57c0.38-0.21,0.72-0.46,1.02-0.76
		c0.36-0.36,0.65-0.79,0.86-1.29c0.21-0.5,0.32-1.07,0.32-1.7c0-0.73-0.14-1.41-0.42-2.01C259.57,26.93,259.13,26.4,258.57,25.97z
		 M259.07,30.87c-0.16,0.38-0.38,0.71-0.66,0.98c-0.28,0.28-0.6,0.5-0.96,0.68c-0.36,0.18-0.74,0.31-1.13,0.4
		c0.35,0.16,0.64,0.41,0.86,0.75c0.23,0.34,0.34,0.74,0.34,1.18c0,0.51-0.13,0.95-0.4,1.32s-0.69,0.73-1.27,1.09
		c0.36,0.15,0.69,0.36,0.98,0.62c0.3,0.26,0.55,0.56,0.75,0.9c0.21,0.34,0.36,0.71,0.48,1.11c0.11,0.4,0.17,0.82,0.17,1.24
		c0,0.74-0.1,1.41-0.31,1.99c-0.21,0.59-0.52,1.08-0.93,1.49c-0.41,0.41-0.92,0.72-1.53,0.94c-0.61,0.22-1.32,0.33-2.13,0.33
		c-0.31,0-0.63-0.02-0.96-0.07c-0.33-0.05-0.61-0.11-0.83-0.18h-4.55v-1.42l2.47-0.34c-0.23-0.29-0.43-0.67-0.59-1.12
		c-0.16-0.46-0.24-0.97-0.24-1.55c0-0.63,0.1-1.22,0.29-1.76c0.2-0.54,0.49-1.01,0.89-1.4c0.4-0.39,0.89-0.7,1.47-0.92
		c0.59-0.22,1.27-0.33,2.04-0.33c0.18,0,0.37,0,0.55,0.01c0.18,0,0.33,0.02,0.45,0.04c0.14-0.08,0.28-0.18,0.42-0.28
		c0.14-0.1,0.26-0.22,0.38-0.36c0.11-0.13,0.21-0.28,0.28-0.45c0.07-0.17,0.11-0.35,0.11-0.55c0-0.23-0.05-0.41-0.15-0.55
		c-0.1-0.14-0.24-0.24-0.41-0.32c-0.17-0.07-0.37-0.12-0.61-0.15c-0.23-0.03-0.48-0.04-0.74-0.04h-2.21c-0.78,0-1.43-0.1-1.97-0.29
		c-0.54-0.2-0.97-0.46-1.31-0.8c-0.34-0.33-0.58-0.73-0.73-1.19c-0.15-0.46-0.23-0.94-0.23-1.45c0-0.74,0.14-1.4,0.41-1.98
		c0.27-0.59,0.69-1.08,1.25-1.49c0.56-0.41,1.27-0.72,2.13-0.93c0.86-0.22,1.87-0.33,3.03-0.33c0.89,0,1.68,0.09,2.35,0.26
		c0.67,0.18,1.22,0.43,1.67,0.77c0.44,0.33,0.78,0.74,1,1.21c0.22,0.47,0.33,1.01,0.33,1.6C259.32,30.05,259.24,30.49,259.07,30.87z
		"/>
	<path class="st0" d="M256.46,28.07c-0.25-0.19-0.57-0.34-0.98-0.46c-0.41-0.11-0.91-0.17-1.51-0.17c-1.55,0-2.72,0.24-3.49,0.72
		c-0.77,0.48-1.16,1.17-1.16,2.08c0,0.38,0.05,0.7,0.15,0.94c0.1,0.24,0.27,0.43,0.5,0.57s0.53,0.23,0.91,0.28s0.84,0.07,1.38,0.07
		h2.21c0.29,0,0.6-0.03,0.92-0.1c0.32-0.07,0.61-0.19,0.87-0.38c0.26-0.18,0.48-0.44,0.65-0.76c0.17-0.32,0.26-0.74,0.26-1.25
		c0-0.31-0.05-0.6-0.16-0.87C256.89,28.49,256.71,28.26,256.46,28.07z M256.05,30.42L256.05,30.42c-0.1,0.19-0.22,0.33-0.35,0.42
		c-0.16,0.11-0.33,0.18-0.52,0.22c-0.25,0.05-0.49,0.08-0.72,0.08h-2.21c-0.5,0-0.92-0.02-1.25-0.07c-0.32-0.04-0.47-0.11-0.54-0.16
		c-0.06-0.03-0.08-0.07-0.1-0.11c-0.03-0.07-0.08-0.24-0.08-0.57c0-0.57,0.22-0.95,0.7-1.26c0.61-0.38,1.64-0.58,2.98-0.58
		c0.51,0,0.93,0.05,1.25,0.13c0.28,0.08,0.5,0.18,0.64,0.29c0.11,0.09,0.19,0.18,0.23,0.3c0.06,0.15,0.09,0.31,0.09,0.5
		C256.19,30.06,256.12,30.3,256.05,30.42z"/>
	<path class="st0" d="M253.41,38.38c-0.84,0-1.47,0.23-1.9,0.7c-0.43,0.46-0.65,1.19-0.65,2.19c0,1.03,0.22,1.79,0.66,2.27
		c0.44,0.48,1.08,0.73,1.91,0.73c0.83,0,1.46-0.25,1.91-0.75c0.44-0.5,0.66-1.26,0.66-2.28c0-0.96-0.23-1.68-0.68-2.14
		C254.88,38.61,254.24,38.38,253.41,38.38z M254.62,42.87c-0.16,0.18-0.46,0.43-1.18,0.43c-0.83,0-1.11-0.31-1.2-0.41
		c-0.27-0.3-0.41-0.86-0.41-1.62c0-0.73,0.13-1.26,0.39-1.53c0.24-0.26,0.63-0.39,1.19-0.39c0.56,0,0.96,0.13,1.22,0.41
		c0.27,0.28,0.41,0.78,0.41,1.48C255.04,41.99,254.9,42.55,254.62,42.87z"/>
	<path class="st0" d="M244.04,32.8c-0.64-0.7-1.42-1.23-2.31-1.6c-0.87-0.35-1.84-0.53-2.88-0.53c-0.46,0-0.88,0.02-1.28,0.05
		c-0.41,0.04-0.8,0.1-1.17,0.18c-0.37,0.08-0.75,0.19-1.12,0.32c-0.35,0.13-0.7,0.28-1.07,0.45c-0.34,0.16-0.55,0.5-0.55,0.87v2.03
		c0,0.33,0.17,0.64,0.44,0.81c0.28,0.18,0.62,0.2,0.92,0.06c0.31-0.14,0.61-0.27,0.9-0.38c0.28-0.11,0.57-0.19,0.86-0.26
		c0.3-0.07,0.62-0.12,0.95-0.16c0.32-0.04,0.68-0.06,1.07-0.06c0.97,0,1.66,0.26,2.12,0.8c0.37,0.43,0.61,1.1,0.72,1.98h-7.64
		c-0.53,0-0.96,0.43-0.96,0.96v1.42c0,1.01,0.14,1.96,0.42,2.81c0.28,0.87,0.7,1.64,1.24,2.27c0.55,0.65,1.23,1.15,2.02,1.51
		c0.78,0.35,1.66,0.53,2.63,0.53c0.98,0,1.9-0.19,2.72-0.58c0.83-0.39,1.55-0.96,2.14-1.69c0.57-0.71,1.02-1.59,1.34-2.6
		c0.3-0.98,0.46-2.1,0.46-3.33c0-1.23-0.17-2.35-0.5-3.32C245.18,34.34,244.68,33.49,244.04,32.8z M244.64,41.71
		c-0.28,0.89-0.66,1.65-1.17,2.28c-0.5,0.62-1.1,1.1-1.8,1.42c-0.7,0.33-1.47,0.49-2.31,0.49c-0.83,0-1.57-0.15-2.23-0.44
		c-0.66-0.3-1.22-0.71-1.68-1.25c-0.46-0.54-0.81-1.19-1.06-1.94c-0.25-0.76-0.37-1.6-0.37-2.51v-1.42h8.68
		c-0.04-1.61-0.38-2.8-1.02-3.56c-0.64-0.76-1.59-1.14-2.85-1.14c-0.43,0-0.82,0.02-1.18,0.06c-0.36,0.04-0.72,0.1-1.05,0.18
		c-0.34,0.08-0.67,0.18-0.98,0.3c-0.32,0.12-0.64,0.26-0.97,0.41v-2.03c0.33-0.16,0.66-0.3,0.98-0.41c0.32-0.12,0.65-0.21,0.99-0.29
		c0.34-0.08,0.69-0.13,1.05-0.16c0.36-0.03,0.76-0.05,1.18-0.05c0.92,0,1.76,0.15,2.52,0.46c0.76,0.31,1.41,0.76,1.96,1.35
		c0.55,0.59,0.97,1.33,1.27,2.21c0.3,0.88,0.45,1.88,0.45,3.01C245.06,39.8,244.92,40.82,244.64,41.71z"/>
	<path class="st0" d="M236.65,41.74c0.11,0.47,0.29,0.88,0.53,1.21c0.24,0.33,0.54,0.59,0.91,0.78c0.37,0.18,0.81,0.28,1.33,0.28
		c0.95,0,1.71-0.33,2.26-0.98c0.56-0.65,0.88-1.6,0.97-2.85h-6.17C236.48,40.75,236.54,41.27,236.65,41.74z M241.53,41.15
		c-0.13,0.53-0.32,0.95-0.59,1.26c-0.37,0.44-0.86,0.64-1.53,0.64c-0.36,0-0.67-0.06-0.9-0.18c-0.23-0.11-0.41-0.27-0.56-0.47
		c-0.16-0.23-0.29-0.52-0.37-0.88c-0.03-0.12-0.05-0.24-0.07-0.37H241.53z"/>
	<path class="st0" d="M230.64,32.84C230.64,32.84,230.64,32.84,230.64,32.84c-0.55-0.72-1.23-1.27-2.01-1.63
		c-0.77-0.36-1.62-0.54-2.54-0.54c-0.58,0-1.12,0.07-1.6,0.2c-0.49,0.13-0.94,0.32-1.33,0.55c-0.17,0.1-0.33,0.21-0.49,0.33
		l-0.01-0.04c-0.08-0.46-0.48-0.79-0.95-0.79h-1.84c-0.53,0-0.96,0.43-0.96,0.96v19.51c0,0.53,0.43,0.96,0.96,0.96h2.28
		c0.53,0,0.96-0.43,0.96-0.96v-5.3c0.02,0.01,0.05,0.03,0.07,0.04c0.39,0.23,0.83,0.4,1.31,0.53c0.48,0.13,1.02,0.2,1.59,0.2
		c0.92,0,1.78-0.19,2.54-0.55c0.78-0.37,1.46-0.92,2.01-1.65c0.53-0.7,0.95-1.56,1.23-2.56c0.27-0.97,0.41-2.1,0.41-3.36
		c0-1.25-0.14-2.38-0.41-3.35C231.58,34.4,231.17,33.54,230.64,32.84z M230.94,41.85c-0.25,0.89-0.61,1.64-1.07,2.24
		c-0.46,0.6-1.01,1.06-1.66,1.36c-0.64,0.31-1.35,0.46-2.13,0.46c-0.49,0-0.94-0.05-1.34-0.16c-0.4-0.11-0.76-0.25-1.08-0.44
		c-0.32-0.18-0.61-0.4-0.86-0.64c-0.25-0.24-0.47-0.5-0.65-0.77H222c0.02,0.28,0.05,0.56,0.07,0.82c0.02,0.22,0.03,0.44,0.05,0.67
		c0.02,0.23,0.03,0.41,0.03,0.55v5.47h-2.28V31.88h1.84l0.34,1.84h0.1c0.18-0.28,0.4-0.55,0.65-0.81c0.25-0.26,0.53-0.48,0.85-0.67
		c0.32-0.19,0.68-0.34,1.09-0.45c0.4-0.11,0.85-0.16,1.35-0.16c0.78,0,1.49,0.15,2.13,0.45c0.64,0.3,1.2,0.75,1.66,1.35
		c0.46,0.6,0.82,1.34,1.07,2.23c0.25,0.89,0.38,1.91,0.38,3.09C231.31,39.92,231.19,40.95,230.94,41.85z"/>
	<path class="st0" d="M225.65,33.52c-0.64,0-1.17,0.1-1.61,0.29c-0.44,0.19-0.79,0.48-1.07,0.88c-0.27,0.39-0.47,0.88-0.6,1.47
		c-0.13,0.59-0.2,1.28-0.22,2.06v0.51c0,0.84,0.06,1.59,0.17,2.25c0.11,0.66,0.31,1.21,0.58,1.66c0.27,0.45,0.63,0.79,1.09,1.02
		c0.45,0.23,1.02,0.34,1.69,0.34c1.13,0,1.96-0.46,2.49-1.37c0.53-0.91,0.8-2.22,0.8-3.92c0-1.75-0.27-3.05-0.8-3.91
		C227.63,33.95,226.79,33.52,225.65,33.52z M227.33,42.16c-0.36,0.61-0.87,0.89-1.66,0.89c-0.52,0-0.94-0.08-1.25-0.24
		c-0.29-0.15-0.52-0.36-0.7-0.66c-0.21-0.34-0.36-0.78-0.45-1.32c-0.1-0.6-0.16-1.3-0.16-2.09v-0.49c0.02-0.72,0.08-1.35,0.2-1.88
		c0.1-0.46,0.26-0.84,0.45-1.13c0.17-0.24,0.38-0.42,0.66-0.54c0.31-0.14,0.73-0.21,1.22-0.21c0.82,0,1.34,0.26,1.7,0.83
		c0.43,0.7,0.65,1.84,0.65,3.4C227.99,40.24,227.77,41.4,227.33,42.16z"/>
	<path class="st0" d="M215.25,32.8c-0.64-0.7-1.42-1.23-2.31-1.6c-0.87-0.35-1.84-0.53-2.88-0.53c-0.46,0-0.88,0.02-1.28,0.05
		c-0.41,0.04-0.8,0.1-1.17,0.18c-0.37,0.08-0.75,0.19-1.12,0.32c-0.35,0.13-0.7,0.28-1.07,0.45c-0.34,0.16-0.55,0.5-0.55,0.87v2.03
		c0,0.33,0.17,0.64,0.44,0.81c0.28,0.18,0.63,0.2,0.92,0.06c0.31-0.14,0.61-0.27,0.9-0.38c0.28-0.11,0.57-0.19,0.86-0.26
		c0.3-0.07,0.62-0.12,0.95-0.16c0.32-0.04,0.68-0.06,1.07-0.06c0.97,0,1.66,0.26,2.12,0.8c0.37,0.43,0.61,1.1,0.72,1.98h-7.64
		c-0.53,0-0.96,0.43-0.96,0.96v1.42c0,1.01,0.14,1.96,0.42,2.81c0.28,0.87,0.7,1.64,1.24,2.27c0.55,0.65,1.23,1.15,2.02,1.51
		c0.78,0.35,1.67,0.53,2.63,0.53c0.98,0,1.9-0.19,2.72-0.58c0.83-0.39,1.55-0.96,2.14-1.69c0.57-0.71,1.02-1.59,1.34-2.6
		c0.3-0.98,0.46-2.1,0.46-3.33c0-1.23-0.17-2.35-0.5-3.32C216.39,34.34,215.89,33.49,215.25,32.8z M215.85,41.71
		c-0.28,0.89-0.66,1.65-1.17,2.28c-0.5,0.62-1.1,1.1-1.8,1.42c-0.7,0.33-1.47,0.49-2.31,0.49c-0.83,0-1.57-0.15-2.23-0.44
		c-0.66-0.3-1.22-0.71-1.68-1.25c-0.46-0.54-0.81-1.19-1.06-1.94c-0.25-0.76-0.37-1.6-0.37-2.51v-1.42h8.68
		c-0.04-1.61-0.38-2.8-1.02-3.56c-0.64-0.76-1.59-1.14-2.85-1.14c-0.43,0-0.82,0.02-1.18,0.06c-0.36,0.04-0.72,0.1-1.05,0.18
		c-0.34,0.08-0.67,0.18-0.98,0.3c-0.32,0.12-0.64,0.26-0.97,0.41v-2.03c0.33-0.16,0.66-0.3,0.98-0.41c0.32-0.12,0.65-0.21,0.99-0.29
		c0.34-0.08,0.69-0.13,1.05-0.16c0.36-0.03,0.76-0.05,1.18-0.05c0.92,0,1.76,0.15,2.52,0.46c0.76,0.31,1.42,0.76,1.96,1.35
		c0.55,0.59,0.97,1.33,1.27,2.21s0.45,1.88,0.45,3.01C216.27,39.8,216.13,40.82,215.85,41.71z"/>
	<path class="st0" d="M207.86,41.74c0.11,0.47,0.29,0.88,0.53,1.21c0.24,0.33,0.54,0.59,0.91,0.78c0.37,0.18,0.81,0.28,1.33,0.28
		c0.95,0,1.71-0.33,2.26-0.98c0.56-0.65,0.88-1.6,0.97-2.85h-6.17C207.69,40.75,207.75,41.27,207.86,41.74z M212.74,41.15
		c-0.13,0.53-0.32,0.95-0.59,1.26c-0.37,0.44-0.86,0.64-1.53,0.64c-0.36,0-0.67-0.06-0.9-0.18c-0.23-0.11-0.41-0.27-0.56-0.47
		c-0.16-0.23-0.29-0.52-0.37-0.88c-0.03-0.12-0.05-0.24-0.07-0.37H212.74z"/>
	<path class="st0" d="M198.73,34.89c-0.27-0.45-0.63-0.79-1.08-1.02c-0.45-0.23-1.02-0.34-1.69-0.34c-1.13,0-1.96,0.46-2.49,1.37
		c-0.53,0.91-0.8,2.22-0.8,3.92c0,1.74,0.27,3.04,0.8,3.9c0.53,0.86,1.37,1.29,2.51,1.29c0.64,0,1.17-0.1,1.61-0.29
		c0.44-0.19,0.79-0.48,1.07-0.88c0.27-0.39,0.47-0.88,0.6-1.47s0.2-1.28,0.22-2.07v-0.51c0-0.84-0.06-1.59-0.17-2.25
		C199.19,35.88,199,35.33,198.73,34.89z M198.51,39.3c-0.02,0.73-0.08,1.36-0.2,1.87c-0.1,0.46-0.25,0.84-0.45,1.13
		c-0.17,0.24-0.38,0.42-0.66,0.54c-0.31,0.14-0.73,0.21-1.22,0.21c-1.06,0-1.47-0.48-1.69-0.83c-0.43-0.7-0.65-1.84-0.65-3.39
		c0-1.52,0.22-2.68,0.67-3.44c0.36-0.61,0.87-0.89,1.66-0.89c0.52,0,0.94,0.08,1.25,0.24c0.29,0.15,0.52,0.37,0.7,0.66
		c0.21,0.34,0.36,0.79,0.45,1.32c0.1,0.6,0.15,1.3,0.15,2.09V39.3z"/>
	<path class="st0" d="M201.76,24.75h-2.28c-0.53,0-0.96,0.43-0.96,0.96v5.72c-0.02-0.01-0.05-0.03-0.08-0.04
		c-0.39-0.22-0.83-0.39-1.3-0.52c-0.48-0.13-1.02-0.2-1.59-0.2c-0.93,0-1.79,0.19-2.55,0.55c-0.78,0.37-1.46,0.93-2.01,1.65
		c-0.53,0.69-0.94,1.55-1.22,2.56c-0.27,0.97-0.41,2.11-0.41,3.36c0,1.25,0.14,2.38,0.41,3.35c0.28,1,0.69,1.86,1.22,2.55
		c0.55,0.72,1.23,1.27,2.01,1.64c0.77,0.36,1.63,0.54,2.55,0.54c0.59,0,1.13-0.07,1.62-0.2c0.48-0.13,0.92-0.32,1.31-0.55
		c0.17-0.1,0.33-0.21,0.48-0.32l0,0.03c0.08,0.46,0.48,0.8,0.95,0.8h1.86c0.53,0,0.96-0.43,0.96-0.96V25.71
		C202.72,25.18,202.29,24.75,201.76,24.75z M201.76,45.65h-1.86l-0.33-1.86h-0.1c-0.19,0.29-0.41,0.57-0.65,0.82
		c-0.24,0.26-0.52,0.48-0.85,0.66c-0.32,0.19-0.68,0.34-1.09,0.45c-0.4,0.11-0.85,0.17-1.35,0.17c-0.79,0-1.5-0.15-2.14-0.45
		c-0.64-0.3-1.19-0.75-1.65-1.35c-0.46-0.6-0.81-1.34-1.06-2.23c-0.25-0.89-0.38-1.91-0.38-3.09c0-1.18,0.13-2.21,0.38-3.1
		c0.25-0.89,0.6-1.64,1.06-2.24c0.46-0.6,1.01-1.06,1.65-1.36c0.64-0.31,1.36-0.46,2.14-0.46c0.49,0,0.94,0.05,1.34,0.16
		c0.4,0.11,0.76,0.25,1.09,0.43c0.32,0.18,0.61,0.39,0.85,0.63c0.25,0.24,0.47,0.5,0.66,0.76h0.15c-0.03-0.28-0.05-0.56-0.08-0.81
		c-0.02-0.22-0.03-0.44-0.05-0.67c-0.02-0.23-0.03-0.41-0.03-0.55v-5.88h2.28V45.65z"/>
	<path class="st0" d="M181.47,33.52c-1.29,0-2.21,0.44-2.78,1.32c-0.56,0.88-0.85,2.2-0.85,3.94c0,1.75,0.29,3.05,0.86,3.92
		c0.57,0.86,1.5,1.3,2.79,1.3c1.29,0,2.21-0.43,2.78-1.3c0.56-0.86,0.85-2.17,0.85-3.92c0-1.75-0.29-3.06-0.86-3.94
		C183.69,33.97,182.76,33.52,181.47,33.52z M183.46,42.18C183.46,42.18,183.46,42.18,183.46,42.18c-0.24,0.37-0.71,0.86-1.97,0.86
		c-1.27,0-1.74-0.49-1.99-0.87c-0.46-0.7-0.7-1.84-0.7-3.39c0-1.55,0.23-2.7,0.69-3.42c0.24-0.38,0.71-0.88,1.97-0.88
		c1.26,0,1.73,0.5,1.98,0.88c0.47,0.72,0.7,1.87,0.7,3.42S183.92,41.48,183.46,42.18z"/>
	<path class="st0" d="M186.52,32.86c-0.62-0.71-1.37-1.26-2.23-1.63c-1.75-0.76-3.98-0.72-5.65,0c-0.88,0.38-1.63,0.93-2.25,1.64
		c-0.61,0.7-1.07,1.57-1.39,2.58c-0.31,0.98-0.46,2.1-0.46,3.34c0,1.24,0.17,2.36,0.49,3.34c0.34,1,0.82,1.86,1.43,2.56
		c0.62,0.71,1.37,1.26,2.23,1.63c0.84,0.36,1.78,0.55,2.76,0.55c1.05,0,2.03-0.18,2.89-0.55c0.89-0.37,1.65-0.92,2.26-1.64
		c0.6-0.7,1.07-1.57,1.38-2.57c0.31-0.97,0.47-2.09,0.47-3.32c0-1.24-0.17-2.37-0.5-3.36C187.61,34.43,187.13,33.56,186.52,32.86z
		 M187.06,41.82c-0.28,0.88-0.68,1.63-1.2,2.23c-0.52,0.61-1.15,1.07-1.9,1.38c-0.75,0.31-1.59,0.47-2.51,0.47
		c-0.86,0-1.66-0.16-2.38-0.47c-0.73-0.31-1.36-0.77-1.89-1.38c-0.53-0.61-0.95-1.35-1.24-2.23c-0.3-0.88-0.44-1.89-0.44-3.03
		c0-1.15,0.14-2.16,0.42-3.05c0.28-0.89,0.68-1.64,1.2-2.24c0.52-0.61,1.16-1.07,1.9-1.39c0.74-0.32,1.58-0.48,2.51-0.48
		c0.86,0,1.66,0.16,2.38,0.48c0.73,0.32,1.36,0.78,1.89,1.39c0.53,0.61,0.94,1.35,1.24,2.24c0.3,0.89,0.45,1.91,0.45,3.05
		C187.48,39.93,187.34,40.94,187.06,41.82z"/>
	<path class="st0" d="M173.66,42.97h-0.98v-7.02c0-0.95-0.11-1.74-0.32-2.4c-0.23-0.69-0.56-1.27-0.99-1.7
		c-0.44-0.44-0.96-0.76-1.55-0.94c-0.74-0.22-1.56-0.29-2.45-0.21c-0.25,0.02-0.49,0.06-0.71,0.1c-0.24,0.04-0.46,0.1-0.66,0.16
		c-0.22,0.06-0.4,0.13-0.54,0.2c-0.34,0.16-0.56,0.5-0.56,0.88v1.73c0,0.31,0.15,0.6,0.4,0.78c0.25,0.18,0.58,0.23,0.87,0.13
		c0.05-0.02,0.13-0.04,0.24-0.06c0.12-0.03,0.26-0.05,0.41-0.07c0.16-0.02,0.32-0.04,0.49-0.06c0.16-0.01,0.3-0.02,0.43-0.02
		c0.38,0,0.45,0.12,0.49,0.17c0.09,0.14,0.24,0.5,0.24,1.31v7.02h-2.5c-0.53,0-0.96,0.43-0.96,0.96v1.72c0,0.53,0.43,0.96,0.96,0.96
		h2.5v2.2c0,0.53,0.43,0.96,0.96,0.96h1.32c0.41,0,0.78-0.26,0.91-0.65l0.85-2.51l1.59-0.8c0.33-0.16,0.53-0.5,0.53-0.86v-1.02
		C174.62,43.4,174.19,42.97,173.66,42.97z M173.66,44.95l-1.94,0.98l-0.98,2.88h-1.32v-3.16h-3.46v-1.72h3.46v-7.99
		c0-0.81-0.13-1.42-0.4-1.83c-0.26-0.41-0.7-0.61-1.3-0.61c-0.15,0-0.32,0.01-0.51,0.02c-0.19,0.02-0.37,0.04-0.55,0.06
		c-0.17,0.03-0.34,0.05-0.48,0.09c-0.15,0.03-0.26,0.06-0.33,0.09v-1.73c0.11-0.05,0.25-0.1,0.41-0.15
		c0.17-0.05,0.35-0.09,0.55-0.13c0.2-0.04,0.41-0.07,0.63-0.09c0.22-0.02,0.43-0.03,0.64-0.03c0.52,0,1,0.07,1.44,0.2
		c0.44,0.13,0.83,0.36,1.15,0.69c0.32,0.33,0.58,0.77,0.76,1.32c0.18,0.56,0.28,1.26,0.28,2.1v7.99h1.94V44.95z"/>
	<path class="st0" d="M155.44,41.66c0.1,0.36,0.25,0.67,0.45,0.93c0.2,0.26,0.45,0.47,0.75,0.62c0.3,0.15,0.65,0.23,1.05,0.23
		c0.68,0,1.24-0.24,1.69-0.71c0.45-0.48,0.7-1.22,0.77-2.24h-4.88C155.28,40.91,155.34,41.3,155.44,41.66z M159.01,41.45
		c-0.09,0.26-0.2,0.47-0.34,0.62c-0.27,0.28-0.57,0.41-0.98,0.41c-0.25,0-0.46-0.04-0.62-0.12c-0.17-0.09-0.31-0.2-0.42-0.34
		c-0.12-0.15-0.21-0.34-0.28-0.57H159.01z"/>
	<path class="st0" d="M164.48,35.29c-0.39-1.03-0.94-1.9-1.66-2.59c-0.71-0.69-1.56-1.2-2.54-1.54c-0.94-0.33-1.98-0.49-3.09-0.49
		c-0.56,0-1.06,0.02-1.51,0.06c-0.47,0.04-0.92,0.11-1.34,0.2c-0.42,0.09-0.82,0.21-1.19,0.34c-0.38,0.14-0.76,0.3-1.13,0.5
		c-0.32,0.17-0.52,0.5-0.52,0.85v2.96c0,0.33,0.17,0.65,0.46,0.82c0.28,0.18,0.64,0.19,0.94,0.04c0.34-0.17,0.67-0.32,1-0.45
		c0.31-0.12,0.63-0.23,0.95-0.31c0.32-0.08,0.66-0.14,0.99-0.18c0.69-0.08,1.53-0.12,2.1,0.11c0.27,0.11,0.49,0.25,0.67,0.45
		c0.19,0.2,0.34,0.45,0.45,0.76c0.02,0.05,0.04,0.1,0.05,0.16h-7.44c-0.53,0-0.96,0.43-0.96,0.96v1.86c0,1.13,0.16,2.15,0.48,3.04
		c0.32,0.92,0.8,1.71,1.42,2.35c0.62,0.64,1.38,1.14,2.26,1.47c0.85,0.32,1.81,0.48,2.85,0.48c1.07,0,2.06-0.18,2.96-0.53
		c0.92-0.36,1.71-0.91,2.37-1.64c0.64-0.71,1.14-1.6,1.5-2.64c0.34-1.02,0.51-2.2,0.51-3.53C165.05,37.47,164.86,36.29,164.48,35.29
		z M163.63,42.01c-0.31,0.92-0.74,1.69-1.3,2.3c-0.56,0.61-1.22,1.08-2.01,1.39c-0.78,0.31-1.65,0.46-2.6,0.46
		c-0.93,0-1.77-0.14-2.51-0.42c-0.75-0.28-1.38-0.69-1.91-1.24c-0.52-0.54-0.92-1.21-1.2-2c-0.28-0.79-0.42-1.69-0.42-2.71v-1.86
		h8.55c-0.02-0.54-0.1-1.02-0.26-1.45c-0.15-0.43-0.37-0.79-0.65-1.09c-0.28-0.3-0.62-0.52-1.02-0.68c-0.4-0.16-0.85-0.24-1.36-0.24
		c-0.43,0-0.83,0.02-1.21,0.07c-0.38,0.05-0.75,0.11-1.11,0.21c-0.36,0.09-0.72,0.21-1.07,0.34c-0.35,0.14-0.71,0.3-1.08,0.48v-2.96
		c0.33-0.18,0.67-0.32,1.01-0.45c0.34-0.12,0.7-0.22,1.07-0.31c0.38-0.08,0.78-0.14,1.22-0.18c0.44-0.04,0.91-0.06,1.43-0.06
		c1,0,1.93,0.15,2.77,0.44c0.84,0.29,1.57,0.73,2.18,1.32c0.61,0.59,1.09,1.33,1.42,2.23c0.34,0.9,0.51,1.95,0.51,3.17
		C164.09,40.02,163.93,41.09,163.63,42.01z"/>
	<path class="st0" d="M146.73,39.05l4.4-6.63c0.2-0.3,0.21-0.68,0.05-0.99c-0.17-0.31-0.49-0.51-0.85-0.51h-4.34
		c-0.35,0-0.67,0.19-0.84,0.49l-1.73,3.06l-1.73-3.06c-0.17-0.3-0.49-0.49-0.84-0.49h-4.34c-0.36,0-0.68,0.2-0.85,0.51
		c-0.17,0.31-0.15,0.69,0.05,0.99l4.42,6.63l-4.22,6.32c-0.2,0.3-0.22,0.68-0.05,0.99c0.17,0.31,0.49,0.51,0.85,0.51h4.34
		c0.35,0,0.67-0.19,0.84-0.49l1.52-2.71l1.5,2.7c0.17,0.31,0.49,0.5,0.84,0.5h4.34c0.35,0,0.68-0.19,0.85-0.51
		c0.17-0.31,0.15-0.69-0.04-0.99L146.73,39.05z M145.74,45.9l-2.33-4.21l-2.37,4.21h-4.34l4.58-6.86l-4.78-7.16h4.34l2.57,4.54
		l2.57-4.54h4.34l-4.75,7.16l4.51,6.86H145.74z"/>
	<path class="st0" d="M134.37,24.75h-3.82c-0.53,0-0.96,0.43-0.96,0.96v5.58c-0.33-0.18-0.7-0.33-1.09-0.44
		c-0.44-0.12-0.94-0.18-1.49-0.18c-0.88,0-1.7,0.19-2.44,0.57c-0.74,0.38-1.39,0.95-1.91,1.68c-0.5,0.7-0.9,1.58-1.17,2.59
		c-0.26,0.99-0.4,2.13-0.4,3.4c0,1.27,0.13,2.4,0.38,3.38c0.26,1.01,0.64,1.88,1.13,2.58c0.52,0.74,1.15,1.3,1.88,1.68
		c0.73,0.38,1.55,0.57,2.43,0.57c0.55,0,1.07-0.07,1.53-0.21c0.46-0.14,0.88-0.32,1.25-0.56c0.21-0.13,0.4-0.28,0.58-0.44l0.08,0.25
		c0.12,0.41,0.5,0.69,0.92,0.69h3.11c0.53,0,0.96-0.43,0.96-0.96V25.71C135.33,25.18,134.9,24.75,134.37,24.75z M134.37,45.9h-3.11
		l-0.54-1.82h-0.17c-0.18,0.28-0.38,0.55-0.6,0.8c-0.23,0.25-0.49,0.47-0.78,0.66c-0.3,0.19-0.63,0.34-1.01,0.45
		c-0.38,0.11-0.79,0.17-1.25,0.17c-0.73,0-1.39-0.15-1.98-0.46c-0.59-0.31-1.1-0.77-1.53-1.38s-0.76-1.37-0.99-2.27
		c-0.23-0.9-0.35-1.95-0.35-3.13c0-1.2,0.12-2.25,0.36-3.15c0.24-0.91,0.58-1.67,1.02-2.28c0.44-0.61,0.96-1.08,1.57-1.39
		c0.61-0.31,1.27-0.46,2-0.46c0.46,0,0.87,0.05,1.23,0.15c0.36,0.1,0.69,0.23,0.97,0.4c0.28,0.17,0.53,0.36,0.75,0.57
		c0.22,0.21,0.41,0.44,0.59,0.67h0.2c-0.03-0.29-0.07-0.57-0.1-0.83c-0.03-0.22-0.05-0.44-0.07-0.67c-0.02-0.23-0.03-0.41-0.03-0.53
		v-5.68h3.82V45.9z"/>
	<path class="st0" d="M130.03,35.81c-0.18-0.35-0.43-0.62-0.73-0.81c-0.3-0.18-0.68-0.28-1.13-0.28c-0.76,0-1.32,0.36-1.67,1.09
		c-0.36,0.72-0.53,1.77-0.53,3.15c0,1.38,0.18,2.41,0.53,3.1c0.36,0.69,0.92,1.03,1.7,1.03c0.43,0,0.79-0.08,1.08-0.23
		c0.3-0.15,0.54-0.39,0.72-0.7c0.18-0.31,0.32-0.7,0.4-1.17c0.08-0.47,0.13-1.02,0.15-1.65v-0.41c0-0.68-0.04-1.28-0.12-1.81
		C130.35,36.61,130.22,36.17,130.03,35.81z M129.58,39.34c-0.02,0.57-0.06,1.07-0.14,1.49c-0.06,0.36-0.16,0.64-0.28,0.85
		c-0.09,0.15-0.2,0.26-0.34,0.33c-0.16,0.08-0.37,0.12-0.64,0.12c-0.42,0-0.65-0.14-0.84-0.51c-0.19-0.38-0.43-1.15-0.43-2.66
		c0-1.52,0.24-2.33,0.43-2.73c0.22-0.45,0.49-0.55,0.81-0.55c0.27,0,0.48,0.05,0.64,0.14c0.15,0.09,0.27,0.23,0.37,0.42
		c0.13,0.26,0.23,0.6,0.3,1.03c0.07,0.47,0.11,1.03,0.11,1.66V39.34z"/>
	<path class="st0" d="M118.76,30.92h-3.82c-0.53,0-0.96,0.43-0.96,0.96v7.14c0,0.55-0.06,1-0.19,1.35
		c-0.11,0.31-0.26,0.55-0.44,0.73c-0.19,0.18-0.41,0.31-0.68,0.39c-0.32,0.1-0.69,0.15-1.08,0.15l-0.28-0.01
		c-0.1,0-0.21-0.01-0.32-0.02c-0.12-0.01-0.23-0.02-0.32-0.04c-0.08-0.01-0.14-0.02-0.19-0.03c-0.29-0.07-0.59,0-0.82,0.18
		c-0.23,0.18-0.37,0.46-0.37,0.76v3.59c0,0.41,0.26,0.78,0.66,0.91c0.09,0.03,0.22,0.06,0.41,0.09l0.32,0.04
		c0.14,0.02,0.28,0.03,0.43,0.03c0.14,0.01,0.26,0.01,0.37,0.01c0.56,0,1.08-0.07,1.53-0.21c0.46-0.14,0.88-0.35,1.25-0.61
		c0.21-0.15,0.41-0.32,0.6-0.51l0.1,0.36c0.11,0.42,0.49,0.71,0.93,0.71h2.9c0.53,0,0.96-0.43,0.96-0.96V31.88
		C119.72,31.35,119.29,30.92,118.76,30.92z M118.76,45.9h-2.9l-0.56-2.11h-0.19c-0.2,0.36-0.42,0.68-0.65,0.98
		c-0.23,0.29-0.49,0.54-0.78,0.75s-0.61,0.36-0.98,0.48c-0.36,0.11-0.78,0.17-1.25,0.17c-0.1,0-0.21,0-0.33-0.01
		c-0.12,0-0.24-0.01-0.35-0.03c-0.11-0.01-0.22-0.03-0.31-0.04c-0.1-0.01-0.17-0.03-0.22-0.04v-3.59c0.07,0.02,0.16,0.03,0.28,0.05
		c0.12,0.02,0.24,0.03,0.37,0.04c0.13,0.01,0.26,0.02,0.38,0.03c0.13,0,0.23,0.01,0.31,0.01c0.49,0,0.95-0.06,1.36-0.19
		c0.41-0.13,0.77-0.33,1.07-0.61c0.3-0.28,0.53-0.65,0.69-1.1c0.16-0.46,0.24-1.01,0.24-1.67v-7.14h3.82V45.9z"/>
	<path class="st0" d="M108.73,35.29c-0.39-1.03-0.94-1.9-1.66-2.59c-0.71-0.69-1.56-1.2-2.54-1.54c-0.94-0.33-1.98-0.49-3.09-0.49
		c-0.56,0-1.06,0.02-1.51,0.06c-0.47,0.04-0.92,0.11-1.34,0.2c-0.42,0.09-0.82,0.21-1.19,0.34c-0.38,0.13-0.76,0.3-1.14,0.5
		c-0.32,0.17-0.52,0.5-0.52,0.85v2.96c0,0.33,0.17,0.65,0.46,0.82c0.28,0.18,0.64,0.19,0.94,0.04c0.34-0.17,0.67-0.32,1-0.45
		c0.31-0.12,0.63-0.23,0.95-0.31c0.33-0.08,0.66-0.15,0.99-0.18c0.69-0.08,1.53-0.12,2.1,0.11c0.27,0.11,0.49,0.25,0.67,0.45
		c0.19,0.2,0.34,0.45,0.45,0.76c0.02,0.05,0.04,0.1,0.05,0.16h-7.44c-0.53,0-0.96,0.43-0.96,0.96v1.86c0,1.13,0.16,2.15,0.48,3.04
		c0.32,0.92,0.8,1.71,1.42,2.35c0.62,0.64,1.38,1.14,2.26,1.47c0.85,0.32,1.81,0.48,2.85,0.48c1.07,0,2.06-0.18,2.96-0.53
		c0.92-0.36,1.71-0.91,2.37-1.63c0.64-0.71,1.15-1.6,1.5-2.64c0.34-1.02,0.51-2.2,0.51-3.53C109.3,37.47,109.11,36.29,108.73,35.29z
		 M107.88,42.01c-0.31,0.92-0.74,1.69-1.3,2.3c-0.56,0.61-1.22,1.08-2.01,1.39c-0.78,0.31-1.65,0.46-2.6,0.46
		c-0.93,0-1.77-0.14-2.51-0.42c-0.75-0.28-1.38-0.69-1.91-1.24c-0.52-0.54-0.92-1.21-1.2-2c-0.28-0.79-0.42-1.69-0.42-2.71v-1.86
		h8.55c-0.02-0.54-0.1-1.02-0.26-1.45c-0.15-0.43-0.37-0.79-0.65-1.09c-0.28-0.3-0.62-0.52-1.02-0.68c-0.4-0.16-0.85-0.24-1.36-0.24
		c-0.43,0-0.83,0.02-1.21,0.07c-0.38,0.05-0.75,0.11-1.11,0.21c-0.36,0.09-0.72,0.21-1.07,0.34c-0.35,0.14-0.71,0.3-1.08,0.48v-2.96
		c0.33-0.18,0.67-0.32,1.01-0.45c0.34-0.12,0.7-0.22,1.07-0.31c0.38-0.08,0.78-0.14,1.22-0.18c0.44-0.04,0.91-0.06,1.43-0.06
		c1,0,1.93,0.15,2.77,0.44c0.84,0.29,1.57,0.73,2.18,1.32c0.61,0.59,1.09,1.33,1.42,2.23c0.34,0.9,0.51,1.95,0.51,3.17
		C108.34,40.02,108.18,41.09,107.88,42.01z"/>
	<path class="st0" d="M99.69,41.66c0.1,0.36,0.25,0.67,0.45,0.93c0.2,0.26,0.45,0.47,0.75,0.62c0.3,0.15,0.65,0.23,1.05,0.23
		c0.68,0,1.24-0.24,1.69-0.71c0.45-0.48,0.7-1.22,0.77-2.24h-4.88C99.53,40.91,99.59,41.3,99.69,41.66z M103.26,41.45
		c-0.09,0.26-0.2,0.47-0.34,0.62c-0.27,0.28-0.57,0.41-0.98,0.41c-0.25,0-0.46-0.04-0.62-0.12c-0.17-0.09-0.31-0.2-0.42-0.34
		c-0.12-0.16-0.21-0.35-0.28-0.57H103.26z"/>
	<path class="st0" d="M93.34,38.94c-0.35-0.41-0.8-0.78-1.33-1.1c-0.48-0.29-1.03-0.58-1.69-0.88c-0.61-0.27-1.09-0.51-1.45-0.69
		c-0.4-0.21-0.6-0.35-0.69-0.43c-0.05-0.04-0.07-0.06-0.09-0.07c0-0.02-0.01-0.05-0.01-0.09l0.05-0.12c0.02-0.02,0.1-0.06,0.27-0.11
		c0.32-0.08,0.87-0.09,1.49,0.01c0.33,0.05,0.67,0.13,1.03,0.22c0.36,0.1,0.72,0.21,1.08,0.34c0.35,0.13,0.69,0.28,1.01,0.44
		c0.3,0.15,0.65,0.13,0.94-0.04c0.28-0.18,0.46-0.49,0.46-0.82v-3.16c0-0.38-0.22-0.72-0.57-0.88c-0.37-0.17-0.74-0.31-1.1-0.42
		c-0.36-0.11-0.74-0.21-1.12-0.28c-0.38-0.07-0.8-0.13-1.23-0.16c-0.41-0.03-0.86-0.05-1.35-0.05c-0.95,0-1.82,0.1-2.6,0.31
		c-0.82,0.21-1.53,0.55-2.13,0.99c-0.62,0.46-1.1,1.04-1.43,1.73c-0.33,0.68-0.5,1.47-0.5,2.35c0,0.74,0.12,1.4,0.35,1.96
		c0.23,0.55,0.58,1.05,1.01,1.46c0.4,0.38,0.89,0.73,1.44,1.02c0.49,0.26,1.04,0.53,1.66,0.8c0.5,0.23,0.9,0.42,1.2,0.58
		c0.32,0.17,0.5,0.28,0.58,0.35c0.07,0.05,0.09,0.08,0.1,0.08c-0.01,0.01-0.14,0.07-0.53,0.07c-0.47,0-0.95-0.08-1.43-0.24
		c-0.54-0.18-1.11-0.41-1.71-0.7c-0.24-0.11-0.51-0.12-0.76-0.03c-0.24,0.09-0.44,0.28-0.54,0.52l-1.15,2.71
		c-0.2,0.47,0,1.02,0.47,1.25c0.85,0.41,1.69,0.72,2.5,0.93c0.83,0.21,1.71,0.32,2.62,0.32c0.87,0,1.68-0.09,2.4-0.27
		c0.76-0.19,1.43-0.49,1.99-0.88c0.59-0.42,1.04-0.94,1.37-1.57c0.32-0.62,0.48-1.35,0.48-2.15c0-0.7-0.09-1.31-0.26-1.84
		C93.99,39.87,93.71,39.37,93.34,38.94z M93.09,43.96c-0.25,0.49-0.61,0.9-1.07,1.22c-0.46,0.33-1.01,0.57-1.66,0.73
		c-0.65,0.16-1.37,0.24-2.16,0.24c-0.84,0-1.63-0.1-2.38-0.29c-0.75-0.19-1.53-0.48-2.32-0.86l1.15-2.71
		c0.64,0.3,1.24,0.55,1.82,0.74c0.58,0.19,1.15,0.29,1.73,0.29c0.52,0,0.89-0.09,1.12-0.28c0.23-0.18,0.34-0.43,0.34-0.75
		c0-0.17-0.03-0.32-0.09-0.45c-0.06-0.13-0.18-0.26-0.35-0.4c-0.18-0.14-0.42-0.29-0.74-0.45c-0.32-0.16-0.73-0.36-1.24-0.6
		c-0.59-0.26-1.13-0.52-1.61-0.77c-0.48-0.26-0.89-0.55-1.23-0.87c-0.34-0.33-0.61-0.71-0.79-1.14c-0.18-0.44-0.28-0.96-0.28-1.58
		c0-0.74,0.13-1.38,0.4-1.93c0.27-0.55,0.65-1.01,1.14-1.38c0.49-0.37,1.09-0.64,1.79-0.83c0.7-0.18,1.49-0.28,2.36-0.28
		c0.46,0,0.89,0.01,1.28,0.04c0.39,0.03,0.77,0.08,1.12,0.14c0.35,0.07,0.69,0.15,1.02,0.25c0.33,0.1,0.66,0.23,0.99,0.38v3.16
		c-0.35-0.17-0.72-0.33-1.11-0.48c-0.39-0.14-0.78-0.27-1.16-0.37c-0.38-0.1-0.76-0.19-1.12-0.25c-0.36-0.06-0.7-0.09-1.01-0.09
		c-0.34,0-0.63,0.03-0.88,0.09c-0.24,0.06-0.44,0.15-0.6,0.26c-0.15,0.11-0.27,0.25-0.34,0.4c-0.07,0.15-0.11,0.32-0.11,0.49
		c0,0.18,0.03,0.33,0.08,0.47c0.05,0.14,0.18,0.28,0.37,0.44c0.19,0.15,0.47,0.33,0.85,0.53c0.37,0.2,0.87,0.44,1.5,0.72
		c0.61,0.28,1.14,0.55,1.59,0.82c0.45,0.27,0.81,0.57,1.1,0.91c0.29,0.33,0.5,0.72,0.65,1.15c0.14,0.43,0.21,0.94,0.21,1.54
		C93.47,42.9,93.34,43.48,93.09,43.96z"/>
	<path class="st0" d="M80.99,38.94c-0.35-0.41-0.8-0.78-1.33-1.1c-0.48-0.29-1.03-0.58-1.69-0.88c-0.61-0.27-1.09-0.51-1.44-0.69
		c-0.4-0.21-0.6-0.35-0.69-0.43c-0.05-0.04-0.07-0.06-0.08-0.07c0-0.02-0.01-0.05-0.01-0.09l0.05-0.12c0.02-0.02,0.1-0.06,0.27-0.11
		c0.32-0.08,0.87-0.09,1.49,0.01c0.33,0.05,0.67,0.13,1.03,0.22c0.36,0.1,0.72,0.21,1.08,0.34c0.35,0.13,0.69,0.28,1.01,0.44
		c0.3,0.15,0.65,0.13,0.94-0.04c0.28-0.18,0.46-0.49,0.46-0.82v-3.16c0-0.38-0.22-0.72-0.57-0.88c-0.37-0.17-0.74-0.31-1.1-0.42
		c-0.36-0.11-0.74-0.21-1.12-0.28c-0.38-0.07-0.8-0.13-1.23-0.16c-0.41-0.03-0.86-0.05-1.35-0.05c-0.95,0-1.82,0.1-2.6,0.31
		c-0.82,0.21-1.53,0.55-2.13,0.99c-0.62,0.46-1.1,1.04-1.43,1.73c-0.33,0.68-0.5,1.47-0.5,2.35c0,0.74,0.12,1.4,0.35,1.96
		c0.23,0.55,0.58,1.05,1.01,1.46c0.4,0.38,0.89,0.73,1.44,1.02c0.49,0.26,1.04,0.53,1.66,0.8c0.5,0.23,0.9,0.42,1.2,0.58
		c0.32,0.17,0.5,0.28,0.58,0.35c0.07,0.05,0.09,0.08,0.1,0.08c-0.01,0.01-0.14,0.07-0.53,0.07c-0.47,0-0.95-0.08-1.43-0.24
		c-0.54-0.18-1.11-0.41-1.71-0.7c-0.24-0.11-0.51-0.12-0.75-0.03c-0.24,0.09-0.44,0.28-0.54,0.52l-1.15,2.71
		c-0.2,0.47,0,1.02,0.47,1.25c0.85,0.41,1.69,0.72,2.5,0.93c0.83,0.21,1.71,0.32,2.62,0.32c0.87,0,1.68-0.09,2.4-0.27
		c0.76-0.19,1.43-0.49,1.99-0.88c0.59-0.42,1.04-0.94,1.37-1.57c0.32-0.62,0.48-1.35,0.48-2.15c0-0.7-0.09-1.31-0.26-1.84
		C81.64,39.87,81.36,39.37,80.99,38.94z M80.74,43.96c-0.25,0.49-0.61,0.9-1.07,1.22c-0.46,0.33-1.01,0.57-1.66,0.73
		c-0.65,0.16-1.37,0.24-2.16,0.24c-0.84,0-1.63-0.1-2.38-0.29c-0.75-0.19-1.53-0.48-2.32-0.86l1.15-2.71
		c0.64,0.3,1.24,0.55,1.82,0.74c0.58,0.19,1.15,0.29,1.73,0.29c0.52,0,0.89-0.09,1.12-0.28c0.23-0.18,0.34-0.43,0.34-0.75
		c0-0.17-0.03-0.32-0.09-0.45c-0.06-0.13-0.18-0.26-0.35-0.4c-0.18-0.14-0.42-0.29-0.74-0.45c-0.32-0.16-0.73-0.36-1.24-0.6
		c-0.59-0.26-1.13-0.52-1.61-0.77c-0.48-0.26-0.89-0.55-1.23-0.87c-0.34-0.33-0.61-0.71-0.79-1.14C71.09,37.19,71,36.66,71,36.05
		c0-0.74,0.13-1.38,0.4-1.93c0.27-0.55,0.65-1.01,1.14-1.38c0.49-0.37,1.09-0.64,1.79-0.83c0.7-0.18,1.49-0.28,2.36-0.28
		c0.46,0,0.89,0.01,1.28,0.04c0.39,0.03,0.77,0.08,1.12,0.14c0.35,0.07,0.69,0.15,1.02,0.25c0.33,0.1,0.66,0.23,0.99,0.38v3.16
		c-0.35-0.17-0.72-0.33-1.11-0.48c-0.39-0.14-0.78-0.27-1.16-0.37c-0.38-0.1-0.76-0.19-1.12-0.25c-0.36-0.06-0.7-0.09-1.01-0.09
		c-0.34,0-0.63,0.03-0.88,0.09c-0.24,0.06-0.44,0.15-0.6,0.26c-0.15,0.11-0.27,0.25-0.34,0.4c-0.07,0.15-0.11,0.32-0.11,0.49
		c0,0.18,0.03,0.33,0.08,0.47c0.05,0.14,0.18,0.28,0.37,0.44c0.19,0.15,0.47,0.33,0.85,0.53c0.37,0.2,0.87,0.44,1.5,0.72
		c0.61,0.28,1.14,0.55,1.59,0.82c0.45,0.27,0.81,0.57,1.1,0.91c0.29,0.33,0.5,0.72,0.65,1.15c0.14,0.43,0.21,0.94,0.21,1.54
		C81.11,42.9,80.99,43.48,80.74,43.96z"/>
	<path class="st0" d="M68.37,31.25C68.37,31.25,68.36,31.25,68.37,31.25c-0.25-0.24-0.54-0.43-0.87-0.54c-0.58-0.2-1.25-0.21-1.88,0
		c-0.33,0.11-0.62,0.3-0.88,0.54c-0.24,0.24-0.43,0.54-0.56,0.88C64.06,32.47,64,32.85,64,33.27c0,0.43,0.06,0.82,0.19,1.15
		c0.13,0.36,0.33,0.66,0.57,0.89c0.25,0.24,0.55,0.42,0.89,0.53c0.29,0.09,0.6,0.14,0.91,0.14c0.32,0,0.64-0.05,0.93-0.14
		c0.33-0.11,0.62-0.29,0.87-0.52c0.24-0.24,0.44-0.54,0.57-0.89c0.13-0.33,0.19-0.72,0.19-1.15c0-0.43-0.06-0.81-0.19-1.14
		C68.79,31.79,68.61,31.49,68.37,31.25z M68.02,34.08c-0.08,0.22-0.2,0.4-0.34,0.54c-0.14,0.14-0.31,0.24-0.5,0.3
		c-0.19,0.06-0.4,0.09-0.63,0.09c-0.22,0-0.42-0.03-0.62-0.09c-0.2-0.06-0.37-0.16-0.51-0.3c-0.14-0.14-0.25-0.32-0.34-0.54
		c-0.08-0.22-0.13-0.49-0.13-0.81c0-0.31,0.04-0.58,0.13-0.8c0.08-0.22,0.2-0.4,0.34-0.55c0.14-0.14,0.31-0.25,0.51-0.31
		c0.2-0.07,0.4-0.1,0.62-0.1c0.23,0,0.44,0.03,0.63,0.1c0.19,0.07,0.36,0.17,0.5,0.31c0.14,0.14,0.25,0.32,0.34,0.55
		c0.08,0.22,0.13,0.49,0.13,0.8C68.15,33.59,68.11,33.86,68.02,34.08z"/>
	<path class="st0" d="M60.65,32.62C60.65,32.62,60.65,32.62,60.65,32.62c-0.65-0.68-1.42-1.19-2.29-1.5
		c-0.84-0.3-1.74-0.45-2.7-0.45c-0.83,0-1.52,0.07-2.11,0.22c-0.59,0.14-1.16,0.36-1.68,0.64c-0.31,0.17-0.51,0.49-0.51,0.85v2.03
		c0,0.33,0.17,0.64,0.44,0.81c0.28,0.18,0.63,0.2,0.92,0.06c0.4-0.18,0.86-0.35,1.36-0.49c0.46-0.13,0.99-0.19,1.57-0.19
		c1.23,0,1.73,0.48,1.99,0.83c0.47,0.63,0.72,1.77,0.72,3.29c0,1.54-0.25,2.7-0.72,3.36c-0.41,0.58-1.09,0.86-2.09,0.86
		c-0.17,0-0.35-0.01-0.54-0.04c-0.21-0.03-0.43-0.08-0.65-0.13c-0.23-0.06-0.44-0.12-0.65-0.19c-0.21-0.07-0.39-0.14-0.56-0.22
		c-0.25-0.11-0.53-0.11-0.77,0s-0.44,0.31-0.52,0.57l-0.68,1.93c-0.16,0.46,0.05,0.96,0.48,1.18c0.49,0.24,1.08,0.45,1.78,0.6
		c0.69,0.16,1.41,0.24,2.13,0.24c0.95,0,1.87-0.15,2.71-0.44c0.88-0.31,1.67-0.81,2.32-1.49c0.65-0.67,1.17-1.54,1.53-2.59
		c0.35-1.01,0.53-2.24,0.53-3.66c0-1.35-0.17-2.54-0.52-3.53C61.79,34.14,61.28,33.29,60.65,32.62z M61.21,42.03
		c-0.32,0.92-0.75,1.66-1.31,2.23c-0.56,0.57-1.21,0.99-1.95,1.25c-0.74,0.26-1.54,0.39-2.39,0.39c-0.65,0-1.29-0.07-1.91-0.21
		c-0.62-0.14-1.14-0.32-1.56-0.53l0.68-1.93c0.19,0.08,0.41,0.17,0.64,0.25c0.23,0.08,0.48,0.15,0.73,0.21
		c0.25,0.06,0.5,0.11,0.74,0.15c0.24,0.04,0.47,0.06,0.69,0.06c1.31,0,2.27-0.42,2.87-1.26c0.6-0.84,0.9-2.15,0.9-3.92
		c0-1.76-0.3-3.05-0.91-3.87c-0.61-0.82-1.53-1.22-2.77-1.22c-0.68,0-1.29,0.08-1.84,0.23c-0.55,0.15-1.05,0.34-1.5,0.55v-2.03
		c0.45-0.24,0.93-0.43,1.45-0.55c0.51-0.13,1.14-0.19,1.89-0.19c0.84,0,1.64,0.13,2.37,0.39c0.74,0.26,1.38,0.68,1.92,1.25
		c0.54,0.57,0.97,1.3,1.28,2.19c0.31,0.89,0.46,1.96,0.46,3.22C61.69,40,61.53,41.12,61.21,42.03z"/>
	<path class="st0" d="M43.8,33.52c-1.29,0-2.21,0.44-2.78,1.32c-0.56,0.88-0.85,2.2-0.85,3.94c0,1.75,0.29,3.05,0.86,3.92
		c0.57,0.86,1.5,1.3,2.79,1.3c1.29,0,2.21-0.43,2.78-1.3s0.85-2.17,0.85-3.92c0-1.75-0.29-3.06-0.86-3.94
		C46.01,33.97,45.08,33.52,43.8,33.52z M45.79,42.18C45.79,42.18,45.79,42.18,45.79,42.18c-0.24,0.37-0.71,0.86-1.97,0.86
		c-1.27,0-1.74-0.49-1.99-0.87c-0.46-0.7-0.7-1.84-0.7-3.39c0-1.55,0.23-2.7,0.69-3.42c0.24-0.38,0.71-0.88,1.97-0.88
		c1.26,0,1.74,0.5,1.98,0.88c0.47,0.72,0.7,1.87,0.7,3.42C46.48,40.34,46.25,41.48,45.79,42.18z"/>
	<path class="st0" d="M48.84,32.86c-0.62-0.71-1.37-1.26-2.23-1.63c-1.75-0.76-3.98-0.72-5.65,0c-0.88,0.38-1.63,0.93-2.25,1.64
		c-0.61,0.7-1.07,1.57-1.39,2.58c-0.31,0.98-0.46,2.11-0.46,3.34c0,1.24,0.17,2.36,0.49,3.34c0.34,1,0.82,1.86,1.43,2.56
		c0.62,0.71,1.37,1.26,2.23,1.63c0.84,0.36,1.77,0.55,2.76,0.55c1.05,0,2.03-0.18,2.89-0.55c0.89-0.37,1.65-0.92,2.26-1.64
		c0.6-0.7,1.07-1.57,1.38-2.57c0.31-0.97,0.47-2.09,0.47-3.32c0-1.24-0.17-2.37-0.49-3.36C49.94,34.43,49.45,33.56,48.84,32.86z
		 M49.38,41.82c-0.28,0.88-0.68,1.63-1.2,2.23c-0.52,0.61-1.15,1.07-1.9,1.38c-0.75,0.31-1.59,0.47-2.51,0.47
		c-0.86,0-1.66-0.16-2.38-0.47c-0.73-0.31-1.36-0.77-1.89-1.38c-0.53-0.61-0.95-1.35-1.24-2.23c-0.3-0.88-0.44-1.89-0.44-3.03
		c0-1.15,0.14-2.16,0.42-3.05c0.28-0.89,0.68-1.64,1.2-2.24c0.52-0.61,1.16-1.07,1.9-1.39c0.74-0.32,1.58-0.48,2.51-0.48
		c0.86,0,1.66,0.16,2.38,0.48c0.73,0.32,1.36,0.78,1.89,1.39c0.53,0.61,0.94,1.35,1.24,2.24c0.3,0.89,0.45,1.91,0.45,3.05
		C49.8,39.93,49.66,40.94,49.38,41.82z"/>
	<path class="st0" d="M34.22,30.92h-2.28c-0.53,0-0.96,0.43-0.96,0.96v7.14c0,0.74-0.05,1.4-0.15,1.96
		c-0.09,0.5-0.24,0.91-0.44,1.23c-0.17,0.27-0.38,0.47-0.66,0.61c-0.3,0.15-0.7,0.23-1.19,0.23c-0.75,0-1.03-0.25-1.17-0.44
		c-0.28-0.36-0.42-1.01-0.42-1.86v-8.87c0-0.53-0.43-0.96-0.96-0.96h-2.29c-0.53,0-0.96,0.43-0.96,0.96v7.6
		c0,0.66-0.06,1.25-0.17,1.74c-0.1,0.43-0.24,0.79-0.44,1.06c-0.18,0.24-0.39,0.42-0.67,0.55c-0.3,0.14-0.69,0.21-1.15,0.21
		c-0.75,0-1.03-0.25-1.18-0.44c-0.28-0.36-0.43-1.01-0.43-1.86v-8.87c0-0.53-0.43-0.96-0.96-0.96h-2.28c-0.53,0-0.96,0.43-0.96,0.96
		v8.99c0,2,0.46,3.51,1.37,4.49c0.93,1,2.28,1.51,4.01,1.51c0.49,0,0.98-0.05,1.45-0.16c0.48-0.11,0.95-0.28,1.37-0.5
		c0.44-0.23,0.85-0.51,1.22-0.86c0.03-0.03,0.06-0.06,0.09-0.08c0.32,0.38,0.7,0.69,1.14,0.94c0.81,0.45,1.8,0.67,2.97,0.67
		c0.45,0,0.9-0.05,1.35-0.15c0.46-0.1,0.89-0.26,1.29-0.48c0.23-0.12,0.46-0.27,0.67-0.43l0,0.01c0.08,0.46,0.48,0.8,0.95,0.8h1.86
		c0.53,0,0.96-0.43,0.96-0.96V31.88C35.18,31.35,34.75,30.92,34.22,30.92z M34.22,45.65h-1.86l-0.33-1.86h-0.13
		c-0.2,0.36-0.44,0.67-0.72,0.93c-0.28,0.26-0.58,0.48-0.91,0.66c-0.33,0.18-0.68,0.3-1.05,0.39c-0.37,0.08-0.75,0.12-1.13,0.12
		c-1,0-1.84-0.18-2.5-0.55c-0.66-0.37-1.16-0.95-1.47-1.73h-0.1c-0.22,0.39-0.48,0.73-0.78,1.02c-0.31,0.28-0.64,0.52-1,0.71
		c-0.36,0.19-0.75,0.33-1.15,0.42c-0.4,0.09-0.81,0.14-1.23,0.14c-1.46,0-2.56-0.4-3.3-1.2c-0.74-0.8-1.11-2.08-1.11-3.83v-8.99
		h2.28v8.87c0,1.09,0.21,1.9,0.63,2.44c0.42,0.54,1.07,0.82,1.94,0.82c0.61,0,1.13-0.1,1.55-0.29c0.43-0.2,0.78-0.49,1.05-0.87
		c0.27-0.38,0.47-0.85,0.6-1.42c0.13-0.56,0.19-1.21,0.19-1.95v-7.6h2.29v8.87c0,1.09,0.21,1.9,0.62,2.44
		c0.41,0.54,1.06,0.82,1.94,0.82c0.64,0,1.18-0.11,1.62-0.33c0.44-0.22,0.78-0.54,1.05-0.97c0.26-0.43,0.45-0.95,0.56-1.57
		c0.11-0.62,0.17-1.33,0.17-2.13v-7.14h2.28V45.65z"/>
	<path class="st0" d="M11.03,43.39c-0.57-0.55-1.26-0.99-2.04-1.3c-1.55-0.62-3.5-0.62-5.06,0c-0.78,0.31-1.47,0.75-2.05,1.3
		c-0.58,0.56-1.05,1.22-1.37,1.97C0.17,46.11,0,46.94,0,47.83c0,0.87,0.17,1.7,0.5,2.46c0.33,0.75,0.79,1.41,1.38,1.96
		c0.58,0.54,1.27,0.98,2.05,1.29C4.71,53.84,5.56,54,6.46,54c0.9,0,1.75-0.16,2.53-0.47c0.78-0.31,1.47-0.75,2.04-1.29
		c0.58-0.55,1.04-1.22,1.36-1.97c0.32-0.75,0.48-1.58,0.48-2.45c0-0.88-0.16-1.71-0.48-2.46C12.07,44.61,11.61,43.95,11.03,43.39z
		 M11.5,49.9c-0.27,0.64-0.65,1.19-1.14,1.65c-0.49,0.46-1.06,0.83-1.73,1.09c-0.66,0.27-1.39,0.4-2.17,0.4
		c-0.78,0-1.51-0.13-2.18-0.4c-0.67-0.27-1.25-0.63-1.74-1.09s-0.88-1.01-1.16-1.65c-0.28-0.64-0.42-1.33-0.42-2.07
		c0-0.75,0.14-1.45,0.42-2.08c0.28-0.64,0.67-1.19,1.16-1.66c0.49-0.47,1.07-0.83,1.74-1.1c0.67-0.27,1.4-0.4,2.18-0.4
		c0.78,0,1.51,0.13,2.17,0.4c0.67,0.27,1.24,0.63,1.73,1.1c0.49,0.47,0.87,1.02,1.14,1.66c0.27,0.64,0.41,1.33,0.41,2.08
		C11.91,48.57,11.77,49.26,11.5,49.9z"/>
	<path class="st0" d="M9.58,44.8c-0.38-0.39-0.84-0.69-1.37-0.9c-0.53-0.22-1.11-0.33-1.74-0.33c-0.62,0-1.19,0.1-1.72,0.31
		c-0.53,0.21-1,0.5-1.39,0.87c-0.4,0.37-0.7,0.82-0.93,1.34c-0.23,0.52-0.34,1.09-0.34,1.7c0,0.6,0.11,1.15,0.33,1.67
		c0.22,0.52,0.53,0.96,0.92,1.34c0.39,0.38,0.85,0.68,1.38,0.9c0.53,0.22,1.12,0.33,1.75,0.33c0.63,0,1.21-0.11,1.74-0.33
		c0.53-0.22,0.99-0.52,1.37-0.9c0.39-0.38,0.69-0.83,0.9-1.34c0.22-0.51,0.33-1.06,0.33-1.65c0-0.6-0.11-1.15-0.33-1.67
		C10.26,45.64,9.96,45.19,9.58,44.8z M6.51,44.54c-0.08,0.1-0.15,0.22-0.18,0.35l-0.17-0.27c-0.01-0.02-0.03-0.03-0.04-0.05
		C6.25,44.56,6.38,44.54,6.51,44.54z M3.76,47.28C3.76,47.29,3.75,47.29,3.76,47.28c-0.28,0.46-0.41,0.94-0.41,1.45
		c0,0.18,0.02,0.37,0.06,0.55c-0.03-0.07-0.08-0.13-0.11-0.2c-0.17-0.4-0.26-0.82-0.26-1.29c0-0.49,0.08-0.92,0.26-1.32
		c0.06-0.13,0.13-0.25,0.2-0.37l0.51,0.82C3.92,47.04,3.83,47.16,3.76,47.28z M8.44,50.55h-2.4c-0.25,0-0.49-0.05-0.7-0.16
		c-0.21-0.11-0.39-0.25-0.54-0.42c-0.15-0.17-0.27-0.37-0.36-0.58c-0.09-0.21-0.13-0.43-0.13-0.65c0-0.34,0.09-0.65,0.27-0.95
		c0.18-0.3,0.42-0.5,0.72-0.62l-1.27-2.05h1.32l1.13,1.83h0.79v-1.83h1.17V50.55z M9.59,49.1c-0.05,0.13-0.12,0.24-0.19,0.35v-3.28
		c0.07,0.12,0.14,0.23,0.19,0.36c0.17,0.39,0.25,0.83,0.25,1.29C9.84,48.29,9.76,48.7,9.59,49.1z"/>
	<path class="st0" d="M5.64,48.17c-0.12,0.14-0.19,0.33-0.19,0.57c0,0.26,0.07,0.46,0.21,0.59c0.14,0.13,0.3,0.19,0.49,0.19h1.11
		v-1.55H6.13C5.93,47.96,5.76,48.03,5.64,48.17z"/>
	<path class="st1" d="M231.22,15.06c0.11,0.14,0.24,0.25,0.4,0.33c0.16,0.08,0.34,0.12,0.56,0.12c0.36,0,0.65-0.13,0.89-0.38
		c0.24-0.25,0.37-0.65,0.41-1.18h-2.57c0.01,0.23,0.03,0.43,0.09,0.62C231.03,14.75,231.11,14.92,231.22,15.06z"/>
	<path class="st1" d="M263.36,15.31c0.46,0,0.8-0.18,1-0.55c0.21-0.36,0.31-0.91,0.31-1.65c0-0.74-0.1-1.29-0.31-1.66
		c-0.21-0.37-0.54-0.56-1.01-0.56c-0.46,0-0.8,0.19-1,0.56c-0.21,0.38-0.31,0.93-0.31,1.66c0,0.74,0.1,1.29,0.31,1.65
		C262.55,15.13,262.89,15.31,263.36,15.31z"/>
	<path class="st1" d="M173.02,15.06c0.11,0.14,0.24,0.25,0.4,0.33c0.16,0.08,0.34,0.12,0.56,0.12c0.36,0,0.65-0.13,0.89-0.38
		c0.24-0.25,0.37-0.65,0.41-1.18h-2.57c0.01,0.23,0.03,0.43,0.09,0.62C172.84,14.75,172.92,14.92,173.02,15.06z"/>
	<path class="st1" d="M31.79,22.85H300.9V4.7H31.79V0.96L15.45,13.77l16.34,12.81V22.85z M293.61,12.84
		c-0.09-0.4-0.24-0.74-0.44-1.01c-0.2-0.28-0.45-0.48-0.75-0.63c-0.31-0.14-0.67-0.22-1.09-0.22c-0.39,0-0.79,0.04-1.18,0.13
		c-0.4,0.09-0.82,0.21-1.29,0.38V9.77c0.21-0.09,0.42-0.16,0.63-0.23c0.21-0.06,0.42-0.11,0.64-0.15c0.22-0.04,0.44-0.07,0.66-0.09
		c0.23-0.02,0.47-0.03,0.73-0.03c0.75,0,1.39,0.12,1.94,0.36c0.55,0.24,1,0.57,1.36,1c0.36,0.43,0.62,0.95,0.79,1.56
		c0.17,0.61,0.26,1.28,0.26,2.03c0,0.73-0.1,1.4-0.3,2.01c-0.2,0.61-0.49,1.14-0.87,1.58c-0.38,0.44-0.86,0.78-1.42,1.03
		c-0.56,0.24-1.21,0.37-1.94,0.37c-0.48,0-0.96-0.06-1.44-0.18c-0.48-0.12-0.95-0.29-1.39-0.5l0.66-1.67
		c0.36,0.17,0.73,0.32,1.09,0.45c0.37,0.13,0.73,0.19,1.08,0.19c0.39,0,0.74-0.08,1.04-0.23c0.3-0.15,0.56-0.37,0.76-0.65
		c0.21-0.28,0.36-0.63,0.47-1.04c0.11-0.41,0.16-0.86,0.16-1.37C293.75,13.7,293.7,13.24,293.61,12.84z M280.58,9.41h1.54l0.27,0.95
		h0.11c0.11-0.19,0.24-0.35,0.39-0.49c0.15-0.13,0.32-0.25,0.5-0.33c0.18-0.09,0.37-0.15,0.58-0.2c0.2-0.04,0.41-0.06,0.62-0.06
		c0.36,0,0.69,0.05,0.99,0.15c0.3,0.1,0.55,0.27,0.76,0.49c0.21,0.22,0.38,0.5,0.49,0.84c0.11,0.34,0.17,0.75,0.17,1.22v4.82h-2.02
		v-4.32c0-0.53-0.08-0.93-0.24-1.2c-0.16-0.27-0.42-0.4-0.77-0.4c-0.26,0-0.48,0.05-0.66,0.16c-0.18,0.11-0.32,0.26-0.42,0.47
		c-0.1,0.21-0.18,0.46-0.22,0.77c-0.04,0.3-0.07,0.65-0.07,1.04v3.48h-2.02V9.41z M273.75,10.58c0.14-0.29,0.34-0.53,0.6-0.73
		c0.26-0.19,0.58-0.34,0.95-0.44c0.37-0.1,0.78-0.14,1.24-0.14c0.24,0,0.47,0.01,0.67,0.02c0.21,0.02,0.4,0.04,0.59,0.08
		c0.19,0.04,0.36,0.08,0.54,0.13c0.17,0.05,0.35,0.12,0.52,0.2v1.67c-0.19-0.09-0.38-0.18-0.59-0.25c-0.21-0.08-0.41-0.14-0.61-0.2
		c-0.2-0.06-0.4-0.1-0.59-0.13c-0.19-0.03-0.37-0.05-0.53-0.05c-0.18,0-0.33,0.02-0.46,0.05c-0.13,0.03-0.23,0.08-0.31,0.14
		c-0.08,0.06-0.14,0.13-0.18,0.21c-0.04,0.08-0.06,0.17-0.06,0.26s0.01,0.17,0.04,0.25c0.03,0.07,0.09,0.15,0.2,0.23
		c0.1,0.08,0.25,0.17,0.45,0.28c0.2,0.1,0.46,0.23,0.79,0.38c0.32,0.15,0.6,0.29,0.84,0.43c0.24,0.14,0.43,0.3,0.58,0.48
		c0.15,0.18,0.27,0.38,0.34,0.61c0.07,0.23,0.11,0.5,0.11,0.81c0,0.34-0.07,0.65-0.2,0.9c-0.13,0.26-0.32,0.47-0.56,0.64
		s-0.53,0.3-0.88,0.39c-0.34,0.09-0.72,0.13-1.14,0.13c-0.44,0-0.86-0.05-1.26-0.15c-0.4-0.1-0.8-0.25-1.22-0.46l0.61-1.43
		c0.34,0.16,0.65,0.29,0.96,0.39c0.3,0.1,0.61,0.15,0.91,0.15c0.27,0,0.47-0.05,0.59-0.15c0.12-0.1,0.18-0.23,0.18-0.4
		c0-0.09-0.02-0.17-0.05-0.24c-0.03-0.07-0.09-0.14-0.19-0.21c-0.09-0.07-0.22-0.15-0.39-0.24c-0.17-0.09-0.39-0.19-0.65-0.31
		c-0.31-0.14-0.59-0.27-0.85-0.41c-0.25-0.13-0.47-0.29-0.65-0.46c-0.18-0.17-0.32-0.37-0.42-0.6c-0.1-0.23-0.14-0.51-0.14-0.83
		C273.54,11.21,273.61,10.87,273.75,10.58z M267.84,9.61c0.19-0.1,0.42-0.18,0.7-0.24c0.28-0.06,0.59-0.1,0.92-0.1
		c0.32,0,0.62,0.04,0.9,0.11c0.28,0.08,0.52,0.21,0.72,0.39c0.2,0.19,0.36,0.44,0.48,0.75c0.12,0.31,0.17,0.71,0.17,1.19v3.56h0.97
		v0.85l-1.11,0.67l-0.58,1.56h-1.29V16.8h-1.8v-1.51h1.8v-3.56c0-0.29-0.07-0.5-0.21-0.63c-0.14-0.14-0.33-0.21-0.56-0.21
		c-0.2,0-0.39,0.02-0.57,0.07c-0.18,0.04-0.36,0.1-0.55,0.16V9.61z M260.21,11.48c0.16-0.48,0.38-0.88,0.67-1.2
		c0.29-0.33,0.65-0.57,1.07-0.74c0.42-0.17,0.89-0.25,1.42-0.25c0.49,0,0.94,0.08,1.35,0.25c0.41,0.17,0.76,0.42,1.06,0.74
		c0.3,0.33,0.53,0.73,0.7,1.2c0.17,0.48,0.25,1.02,0.25,1.64c0,0.61-0.08,1.16-0.23,1.63c-0.16,0.48-0.38,0.88-0.67,1.2
		c-0.29,0.32-0.65,0.57-1.07,0.74c-0.42,0.17-0.89,0.25-1.42,0.25c-0.49,0-0.94-0.08-1.35-0.25c-0.41-0.17-0.76-0.41-1.06-0.74
		s-0.53-0.72-0.7-1.2c-0.17-0.48-0.25-1.02-0.25-1.63C259.97,12.5,260.05,11.95,260.21,11.48z M247.55,9.41h2.02v4.32
		c0,0.53,0.08,0.93,0.24,1.2c0.16,0.27,0.41,0.4,0.75,0.4c0.48,0,0.82-0.19,1.02-0.57c0.2-0.38,0.3-0.93,0.3-1.64V9.41h2.02v4.32
		c0,0.53,0.08,0.93,0.24,1.2c0.16,0.27,0.41,0.4,0.75,0.4c0.26,0,0.47-0.05,0.64-0.16c0.17-0.11,0.3-0.26,0.41-0.47
		c0.1-0.21,0.17-0.46,0.22-0.77c0.04-0.3,0.07-0.65,0.07-1.04V9.41h2.02v7.39h-1.54l-0.27-0.95h-0.11
		c-0.11,0.19-0.23,0.35-0.38,0.49c-0.15,0.14-0.31,0.25-0.49,0.34c-0.18,0.09-0.36,0.15-0.56,0.2c-0.2,0.04-0.4,0.06-0.6,0.06
		c-0.51,0-0.94-0.09-1.29-0.26c-0.36-0.17-0.63-0.45-0.82-0.82h-0.17c-0.11,0.19-0.23,0.35-0.38,0.49c-0.15,0.14-0.31,0.25-0.5,0.34
		c-0.18,0.09-0.37,0.15-0.57,0.2c-0.2,0.04-0.4,0.06-0.6,0.06c-0.79,0-1.39-0.22-1.8-0.64c-0.4-0.43-0.61-1.12-0.61-2.07V9.41z
		 M243.46,9.41h2.02v7.39h-2.02V9.41z M243.46,18.24c0.06-0.13,0.14-0.23,0.24-0.31c0.1-0.08,0.22-0.13,0.35-0.16
		c0.13-0.03,0.27-0.05,0.42-0.05c0.15,0,0.29,0.02,0.43,0.05c0.13,0.03,0.25,0.09,0.35,0.16c0.1,0.08,0.18,0.18,0.23,0.31
		c0.06,0.13,0.09,0.28,0.09,0.47c0,0.19-0.03,0.35-0.09,0.47c-0.06,0.13-0.14,0.23-0.23,0.3c-0.1,0.08-0.22,0.13-0.35,0.16
		c-0.13,0.03-0.28,0.05-0.43,0.05c-0.15,0-0.29-0.02-0.42-0.05c-0.13-0.03-0.25-0.09-0.35-0.16c-0.1-0.08-0.18-0.18-0.24-0.3
		c-0.06-0.13-0.09-0.28-0.09-0.47C243.37,18.53,243.4,18.37,243.46,18.24z M236.61,9.41h5.43v1.19l-3.02,4.66h2.82v1.54h-5.1v-1.31
		l2.92-4.54h-3.05V9.41z M229,12.6h4.51c-0.01-0.28-0.05-0.54-0.14-0.76c-0.08-0.23-0.2-0.42-0.34-0.58
		c-0.15-0.16-0.33-0.28-0.54-0.36c-0.21-0.08-0.45-0.13-0.72-0.13c-0.23,0-0.44,0.01-0.64,0.04c-0.2,0.02-0.4,0.06-0.59,0.11
		c-0.19,0.05-0.38,0.11-0.56,0.18c-0.19,0.07-0.37,0.16-0.57,0.26V9.8c0.18-0.09,0.35-0.17,0.53-0.23c0.18-0.06,0.37-0.12,0.57-0.16
		c0.2-0.04,0.41-0.08,0.64-0.1c0.23-0.02,0.48-0.03,0.75-0.03c0.53,0,1.02,0.08,1.46,0.23c0.45,0.15,0.83,0.39,1.15,0.7
		c0.32,0.31,0.57,0.7,0.75,1.18c0.18,0.47,0.27,1.03,0.27,1.67c0,0.65-0.08,1.21-0.24,1.7c-0.16,0.48-0.39,0.89-0.68,1.21
		c-0.29,0.32-0.65,0.57-1.06,0.73c-0.41,0.16-0.87,0.24-1.37,0.24c-0.49,0-0.93-0.07-1.33-0.22c-0.39-0.15-0.73-0.37-1-0.65
		c-0.28-0.29-0.49-0.64-0.64-1.05c-0.15-0.42-0.22-0.89-0.22-1.43V12.6z M220.45,8.46c0.27-0.78,0.65-1.36,1.12-1.74
		c0.47-0.38,1.06-0.57,1.77-0.57c0.23,0,0.43,0.01,0.59,0.04c0.17,0.02,0.31,0.05,0.43,0.08v1.6c-0.09-0.02-0.21-0.04-0.35-0.06
		c-0.14-0.02-0.29-0.03-0.44-0.03c-0.21,0-0.39,0.03-0.54,0.09c-0.15,0.06-0.28,0.14-0.39,0.24c-0.11,0.1-0.2,0.23-0.28,0.37
		c-0.08,0.14-0.14,0.31-0.2,0.49l-0.13,0.37l2.79,7.46h-2.21l-1.19-4.16c-0.07-0.23-0.12-0.47-0.15-0.73
		c-0.03-0.26-0.05-0.49-0.06-0.7h-0.04c-0.01,0.1-0.02,0.21-0.04,0.34c-0.02,0.12-0.03,0.25-0.06,0.38
		c-0.02,0.13-0.05,0.26-0.08,0.38c-0.03,0.12-0.06,0.24-0.09,0.34l-1.16,4.16h-2.22L220.45,8.46z M210.33,11.48
		c0.16-0.48,0.38-0.88,0.67-1.2c0.29-0.33,0.65-0.57,1.07-0.74c0.42-0.17,0.89-0.25,1.42-0.25c0.49,0,0.94,0.08,1.35,0.25
		c0.41,0.17,0.76,0.42,1.06,0.74c0.3,0.33,0.53,0.73,0.7,1.2c0.17,0.48,0.25,1.02,0.25,1.64c0,0.61-0.08,1.16-0.23,1.63
		c-0.16,0.48-0.38,0.88-0.67,1.2c-0.29,0.32-0.65,0.57-1.07,0.74c-0.42,0.17-0.89,0.25-1.42,0.25c-0.49,0-0.94-0.08-1.35-0.25
		c-0.41-0.17-0.76-0.41-1.06-0.74c-0.3-0.32-0.53-0.72-0.7-1.2c-0.17-0.48-0.25-1.02-0.25-1.63
		C210.1,12.5,210.18,11.95,210.33,11.48z M201.99,9.41h1.54l0.27,0.95h0.11c0.11-0.19,0.24-0.35,0.39-0.49
		c0.15-0.13,0.32-0.25,0.5-0.33c0.18-0.09,0.37-0.15,0.58-0.2c0.2-0.04,0.41-0.06,0.62-0.06c0.36,0,0.69,0.05,0.99,0.15
		c0.3,0.1,0.55,0.27,0.76,0.49c0.21,0.22,0.38,0.5,0.49,0.84c0.11,0.34,0.17,0.75,0.17,1.22v4.82h-2.02v-4.32
		c0-0.53-0.08-0.93-0.24-1.2c-0.16-0.27-0.42-0.4-0.77-0.4c-0.26,0-0.48,0.05-0.66,0.16c-0.18,0.11-0.32,0.26-0.42,0.47
		c-0.1,0.21-0.18,0.46-0.22,0.77c-0.04,0.3-0.07,0.65-0.07,1.04v3.48h-2.02V9.41z M195.37,14.99c0.04,0.01,0.08,0.02,0.15,0.03
		c0.06,0.01,0.13,0.02,0.2,0.02c0.07,0.01,0.13,0.01,0.2,0.01c0.07,0,0.12,0,0.17,0c0.26,0,0.5-0.03,0.72-0.1
		c0.22-0.07,0.41-0.17,0.56-0.32c0.16-0.15,0.28-0.34,0.36-0.58c0.09-0.24,0.13-0.53,0.13-0.88V9.41h2.02v7.39h-1.53l-0.3-1.11h-0.1
		c-0.11,0.19-0.22,0.36-0.34,0.52c-0.12,0.15-0.26,0.29-0.41,0.39c-0.15,0.11-0.32,0.19-0.52,0.25c-0.19,0.06-0.41,0.09-0.66,0.09
		c-0.05,0-0.11,0-0.17,0c-0.06,0-0.13-0.01-0.19-0.01c-0.06-0.01-0.11-0.01-0.17-0.02c-0.05-0.01-0.09-0.02-0.12-0.02V14.99z
		 M188.46,9.41h2.02V19.7h-2.02V9.41z M184.32,9.41h2.02v7.39h-2.02V9.41z M184.32,18.24c0.06-0.13,0.14-0.23,0.24-0.31
		c0.1-0.08,0.22-0.13,0.35-0.16c0.13-0.03,0.27-0.05,0.42-0.05c0.15,0,0.29,0.02,0.43,0.05c0.13,0.03,0.25,0.09,0.35,0.16
		c0.1,0.08,0.18,0.18,0.23,0.31c0.06,0.13,0.09,0.28,0.09,0.47c0,0.19-0.03,0.35-0.09,0.47c-0.06,0.13-0.14,0.23-0.23,0.3
		c-0.1,0.08-0.22,0.13-0.35,0.16c-0.13,0.03-0.28,0.05-0.43,0.05c-0.15,0-0.29-0.02-0.42-0.05c-0.13-0.03-0.25-0.09-0.35-0.16
		c-0.1-0.08-0.18-0.18-0.24-0.3c-0.06-0.13-0.09-0.28-0.09-0.47C184.23,18.53,184.26,18.37,184.32,18.24z M178.19,17.98
		c0.14,0.05,0.28,0.09,0.43,0.13c0.15,0.04,0.33,0.06,0.53,0.06c0.26,0,0.45-0.09,0.56-0.25c0.11-0.17,0.16-0.39,0.16-0.65V16.8
		h-1.5v-1.51h1.5V9.41h2.02v5.88h1.11v0.97l-1.11,0.54v0.54c0,0.47-0.06,0.86-0.17,1.17c-0.11,0.31-0.28,0.56-0.49,0.74
		c-0.21,0.19-0.47,0.32-0.77,0.39c-0.3,0.08-0.64,0.12-1.01,0.12c-0.41,0-0.75-0.03-1.02-0.1c-0.28-0.06-0.51-0.14-0.71-0.22
		L178.19,17.98z M170.8,12.6h4.51c-0.01-0.28-0.05-0.54-0.14-0.76c-0.08-0.23-0.2-0.42-0.34-0.58c-0.15-0.16-0.33-0.28-0.54-0.36
		c-0.21-0.08-0.45-0.13-0.72-0.13c-0.23,0-0.44,0.01-0.64,0.04c-0.2,0.02-0.4,0.06-0.59,0.11c-0.19,0.05-0.38,0.11-0.56,0.18
		c-0.19,0.07-0.37,0.16-0.57,0.26V9.8c0.18-0.09,0.35-0.17,0.53-0.23c0.18-0.06,0.37-0.12,0.57-0.16c0.2-0.04,0.41-0.08,0.64-0.1
		c0.23-0.02,0.48-0.03,0.75-0.03c0.53,0,1.02,0.08,1.46,0.23c0.45,0.15,0.83,0.39,1.15,0.7c0.32,0.31,0.57,0.7,0.75,1.18
		c0.18,0.47,0.27,1.03,0.27,1.67c0,0.65-0.08,1.21-0.24,1.7c-0.16,0.48-0.39,0.89-0.68,1.21c-0.29,0.32-0.65,0.57-1.06,0.73
		c-0.41,0.16-0.87,0.24-1.37,0.24c-0.49,0-0.93-0.07-1.33-0.22c-0.39-0.15-0.73-0.37-1-0.65c-0.28-0.29-0.49-0.64-0.64-1.05
		c-0.15-0.42-0.22-0.89-0.22-1.43V12.6z M167.16,9.84c0.06-0.14,0.14-0.26,0.25-0.35c0.11-0.09,0.23-0.16,0.37-0.2
		c0.14-0.04,0.29-0.06,0.44-0.06c0.16,0,0.31,0.02,0.46,0.06c0.14,0.04,0.26,0.11,0.37,0.2c0.11,0.09,0.19,0.21,0.25,0.35
		c0.06,0.14,0.09,0.31,0.09,0.51c0,0.21-0.03,0.38-0.09,0.53c-0.06,0.14-0.14,0.26-0.25,0.35c-0.11,0.09-0.23,0.15-0.37,0.19
		c-0.14,0.04-0.29,0.06-0.46,0.06c-0.15,0-0.3-0.02-0.44-0.06c-0.14-0.04-0.26-0.1-0.37-0.19c-0.11-0.09-0.19-0.2-0.25-0.35
		c-0.06-0.14-0.09-0.32-0.09-0.53C167.07,10.15,167.1,9.98,167.16,9.84z M167.4,12.61h1.61l0.34,6.46h-2.29L167.4,12.61z"/>
	<path class="st1" d="M213.48,15.31c0.46,0,0.8-0.18,1-0.55c0.21-0.36,0.31-0.91,0.31-1.65c0-0.74-0.1-1.29-0.31-1.66
		c-0.21-0.37-0.54-0.56-1.01-0.56c-0.46,0-0.8,0.19-1,0.56c-0.21,0.38-0.31,0.93-0.31,1.66c0,0.74,0.1,1.29,0.31,1.65
		C212.67,15.13,213.01,15.31,213.48,15.31z"/>
	<path class="st0" d="M293.12,16.62c-0.21,0.28-0.46,0.5-0.76,0.65c-0.3,0.15-0.65,0.23-1.04,0.23c-0.35,0-0.71-0.06-1.08-0.19
		c-0.37-0.13-0.73-0.28-1.09-0.45l-0.66,1.67c0.44,0.21,0.9,0.38,1.39,0.5c0.48,0.12,0.96,0.18,1.44,0.18
		c0.73,0,1.38-0.12,1.94-0.37c0.56-0.25,1.04-0.59,1.42-1.03c0.38-0.44,0.67-0.97,0.87-1.58c0.2-0.61,0.3-1.28,0.3-2.01
		c0-0.75-0.09-1.42-0.26-2.03c-0.17-0.61-0.44-1.13-0.79-1.56c-0.36-0.43-0.81-0.77-1.36-1c-0.55-0.24-1.19-0.36-1.94-0.36
		c-0.26,0-0.5,0.01-0.73,0.03c-0.23,0.02-0.45,0.05-0.66,0.09c-0.22,0.04-0.43,0.09-0.64,0.15c-0.21,0.06-0.42,0.14-0.63,0.23v1.72
		c0.46-0.16,0.89-0.29,1.29-0.38c0.39-0.09,0.79-0.13,1.18-0.13c0.42,0,0.79,0.07,1.09,0.22c0.31,0.14,0.56,0.35,0.75,0.63
		c0.2,0.28,0.34,0.61,0.44,1.01c0.09,0.4,0.14,0.86,0.14,1.38c0,0.51-0.05,0.96-0.16,1.37C293.48,15.99,293.33,16.34,293.12,16.62z"
		/>
	<path class="st0" d="M282.6,13.32c0-0.39,0.02-0.74,0.07-1.04c0.04-0.3,0.12-0.56,0.22-0.77c0.1-0.21,0.24-0.36,0.42-0.47
		c0.18-0.11,0.4-0.16,0.66-0.16c0.35,0,0.61,0.13,0.77,0.4c0.16,0.27,0.24,0.67,0.24,1.2v4.32H287v-4.82c0-0.48-0.06-0.88-0.17-1.22
		c-0.11-0.34-0.28-0.62-0.49-0.84c-0.21-0.22-0.46-0.38-0.76-0.49c-0.3-0.1-0.62-0.15-0.99-0.15c-0.21,0-0.42,0.02-0.62,0.06
		c-0.2,0.04-0.39,0.11-0.58,0.2c-0.18,0.09-0.35,0.2-0.5,0.33c-0.15,0.13-0.28,0.3-0.39,0.49h-0.11l-0.27-0.95h-1.54v7.39h2.02
		V13.32z"/>
	<path class="st0" d="M274.1,13.04c0.18,0.17,0.4,0.32,0.65,0.46c0.25,0.13,0.53,0.27,0.85,0.41c0.27,0.12,0.49,0.23,0.65,0.31
		c0.17,0.09,0.3,0.17,0.39,0.24c0.09,0.07,0.15,0.14,0.19,0.21c0.03,0.07,0.05,0.15,0.05,0.24c0,0.17-0.06,0.3-0.18,0.4
		c-0.12,0.1-0.32,0.15-0.59,0.15c-0.3,0-0.61-0.05-0.91-0.15c-0.3-0.1-0.62-0.23-0.96-0.39l-0.61,1.43c0.42,0.2,0.83,0.36,1.22,0.46
		c0.4,0.1,0.82,0.15,1.26,0.15c0.42,0,0.8-0.04,1.14-0.13c0.34-0.09,0.63-0.22,0.88-0.39s0.43-0.39,0.56-0.64
		c0.13-0.26,0.2-0.56,0.2-0.9c0-0.31-0.04-0.58-0.11-0.81c-0.08-0.23-0.19-0.43-0.34-0.61c-0.15-0.18-0.35-0.34-0.58-0.48
		c-0.24-0.14-0.51-0.29-0.84-0.43c-0.33-0.15-0.59-0.28-0.79-0.38c-0.2-0.1-0.34-0.2-0.45-0.28c-0.1-0.08-0.17-0.16-0.2-0.23
		c-0.03-0.07-0.04-0.16-0.04-0.25s0.02-0.18,0.06-0.26c0.04-0.08,0.1-0.15,0.18-0.21c0.08-0.06,0.19-0.11,0.31-0.14
		c0.13-0.03,0.28-0.05,0.46-0.05c0.16,0,0.34,0.02,0.53,0.05c0.19,0.03,0.39,0.07,0.59,0.13c0.2,0.06,0.41,0.12,0.61,0.2
		c0.2,0.07,0.4,0.16,0.59,0.25V9.7c-0.18-0.08-0.35-0.15-0.52-0.2c-0.17-0.05-0.35-0.1-0.54-0.13c-0.19-0.04-0.38-0.06-0.59-0.08
		c-0.21-0.02-0.43-0.02-0.67-0.02c-0.46,0-0.87,0.05-1.24,0.14c-0.37,0.1-0.69,0.24-0.95,0.44c-0.26,0.19-0.46,0.44-0.6,0.73
		c-0.14,0.29-0.21,0.63-0.21,1.02c0,0.33,0.05,0.6,0.14,0.83C273.79,12.66,273.92,12.87,274.1,13.04z"/>
	<path class="st0" d="M268.95,10.88c0.23,0,0.41,0.07,0.56,0.21c0.14,0.14,0.21,0.35,0.21,0.63v3.56h-1.8v1.51h1.8v1.57h1.29
		l0.58-1.56l1.11-0.67v-0.85h-0.97v-3.56c0-0.48-0.06-0.87-0.17-1.19c-0.12-0.31-0.28-0.57-0.48-0.75c-0.2-0.19-0.44-0.32-0.72-0.39
		c-0.28-0.07-0.58-0.11-0.9-0.11c-0.33,0-0.64,0.03-0.92,0.1c-0.28,0.06-0.51,0.14-0.7,0.24v1.5c0.19-0.07,0.37-0.12,0.55-0.16
		C268.57,10.9,268.75,10.88,268.95,10.88z"/>
	<path class="st0" d="M260.92,15.95c0.3,0.32,0.65,0.57,1.06,0.74c0.41,0.17,0.86,0.25,1.35,0.25c0.53,0,1-0.08,1.42-0.25
		c0.42-0.17,0.78-0.41,1.07-0.74c0.29-0.32,0.52-0.72,0.67-1.2c0.16-0.48,0.23-1.02,0.23-1.63c0-0.62-0.08-1.16-0.25-1.64
		c-0.17-0.48-0.4-0.88-0.7-1.2c-0.3-0.33-0.65-0.57-1.06-0.74c-0.41-0.17-0.86-0.25-1.35-0.25c-0.52,0-1,0.08-1.42,0.25
		c-0.42,0.17-0.78,0.42-1.07,0.74c-0.29,0.33-0.52,0.73-0.67,1.2c-0.16,0.48-0.23,1.02-0.23,1.64c0,0.61,0.08,1.16,0.25,1.63
		C260.39,15.23,260.62,15.63,260.92,15.95z M262.34,11.46c0.21-0.37,0.54-0.56,1-0.56c0.47,0,0.8,0.19,1.01,0.56
		c0.21,0.37,0.31,0.93,0.31,1.66c0,0.74-0.1,1.29-0.31,1.65c-0.21,0.36-0.54,0.55-1,0.55c-0.47,0-0.81-0.18-1.02-0.55
		c-0.21-0.36-0.31-0.91-0.31-1.65C262.03,12.38,262.13,11.83,262.34,11.46z"/>
	<path class="st0" d="M249.95,16.94c0.2,0,0.4-0.02,0.6-0.06c0.2-0.04,0.39-0.11,0.57-0.2c0.18-0.09,0.35-0.2,0.5-0.34
		c0.15-0.14,0.28-0.3,0.38-0.49h0.17c0.19,0.37,0.46,0.65,0.82,0.82c0.36,0.17,0.79,0.26,1.29,0.26c0.2,0,0.4-0.02,0.6-0.06
		c0.2-0.04,0.39-0.11,0.56-0.2c0.18-0.09,0.34-0.2,0.49-0.34c0.15-0.14,0.27-0.3,0.38-0.49h0.11l0.27,0.95h1.54V9.41h-2.02v3.48
		c0,0.39-0.02,0.74-0.07,1.04c-0.04,0.3-0.12,0.56-0.22,0.77c-0.1,0.21-0.24,0.36-0.41,0.47c-0.17,0.11-0.38,0.16-0.64,0.16
		c-0.34,0-0.59-0.13-0.75-0.4c-0.16-0.27-0.24-0.67-0.24-1.2V9.41h-2.02v3.71c0,0.71-0.1,1.26-0.3,1.64
		c-0.2,0.38-0.55,0.57-1.02,0.57c-0.34,0-0.59-0.13-0.75-0.4c-0.16-0.27-0.24-0.67-0.24-1.2V9.41h-2.02v4.82
		c0,0.95,0.2,1.64,0.61,2.07C248.56,16.72,249.16,16.94,249.95,16.94z"/>
	<path class="st0" d="M243.7,19.49c0.1,0.08,0.22,0.13,0.35,0.16c0.13,0.03,0.27,0.05,0.42,0.05c0.15,0,0.29-0.02,0.43-0.05
		c0.13-0.03,0.25-0.09,0.35-0.16c0.1-0.08,0.18-0.18,0.23-0.3c0.06-0.13,0.09-0.28,0.09-0.47c0-0.19-0.03-0.34-0.09-0.47
		c-0.06-0.13-0.14-0.23-0.23-0.31c-0.1-0.08-0.22-0.13-0.35-0.16c-0.13-0.03-0.28-0.05-0.43-0.05c-0.15,0-0.29,0.02-0.42,0.05
		c-0.13,0.03-0.25,0.09-0.35,0.16c-0.1,0.08-0.18,0.18-0.24,0.31c-0.06,0.13-0.09,0.28-0.09,0.47c0,0.19,0.03,0.35,0.09,0.47
		C243.52,19.31,243.6,19.41,243.7,19.49z"/>
	<rect x="243.46" y="9.41" class="st0" width="2.02" height="7.39"/>
	<polygon class="st0" points="236.73,15.49 236.73,16.8 241.84,16.8 241.84,15.26 239.02,15.26 242.04,10.6 242.04,9.41 
		236.61,9.41 236.61,10.95 239.65,10.95 	"/>
	<path class="st0" d="M229.85,16.07c0.28,0.29,0.61,0.5,1,0.65c0.39,0.15,0.84,0.22,1.33,0.22c0.5,0,0.96-0.08,1.37-0.24
		c0.41-0.16,0.76-0.41,1.06-0.73c0.29-0.32,0.52-0.73,0.68-1.21c0.16-0.49,0.24-1.05,0.24-1.7c0-0.64-0.09-1.2-0.27-1.67
		c-0.18-0.47-0.43-0.87-0.75-1.18c-0.32-0.31-0.7-0.54-1.15-0.7c-0.45-0.15-0.93-0.23-1.46-0.23c-0.27,0-0.52,0.01-0.75,0.03
		c-0.23,0.02-0.44,0.05-0.64,0.1c-0.2,0.04-0.39,0.1-0.57,0.16c-0.18,0.06-0.36,0.14-0.53,0.23v1.56c0.19-0.1,0.38-0.18,0.57-0.26
		c0.19-0.07,0.37-0.13,0.56-0.18c0.19-0.05,0.39-0.09,0.59-0.11c0.2-0.02,0.41-0.04,0.64-0.04c0.27,0,0.51,0.04,0.72,0.13
		c0.21,0.08,0.39,0.2,0.54,0.36c0.15,0.16,0.26,0.35,0.34,0.58c0.08,0.23,0.13,0.48,0.14,0.76H229v0.98c0,0.54,0.07,1.01,0.22,1.43
		C229.36,15.43,229.58,15.78,229.85,16.07z M233.47,13.94c-0.04,0.54-0.17,0.93-0.41,1.18c-0.24,0.25-0.53,0.38-0.89,0.38
		c-0.21,0-0.4-0.04-0.56-0.12c-0.16-0.08-0.29-0.19-0.4-0.33c-0.11-0.14-0.19-0.3-0.24-0.49c-0.05-0.19-0.08-0.4-0.09-0.62H233.47z"
		/>
	<path class="st0" d="M220.92,12.64c0.03-0.1,0.06-0.22,0.09-0.34c0.03-0.13,0.05-0.25,0.08-0.38c0.02-0.13,0.04-0.25,0.06-0.38
		c0.02-0.12,0.03-0.24,0.04-0.34h0.04c0.01,0.21,0.03,0.44,0.06,0.7c0.03,0.26,0.08,0.5,0.15,0.73l1.19,4.16h2.21l-2.79-7.46
		l0.13-0.37c0.06-0.18,0.12-0.34,0.2-0.49c0.08-0.15,0.17-0.27,0.28-0.37c0.11-0.1,0.24-0.18,0.39-0.24
		c0.15-0.06,0.33-0.09,0.54-0.09c0.15,0,0.3,0.01,0.44,0.03c0.14,0.02,0.26,0.04,0.35,0.06v-1.6c-0.12-0.03-0.26-0.05-0.43-0.08
		c-0.17-0.02-0.37-0.04-0.59-0.04c-0.71,0-1.3,0.19-1.77,0.57c-0.47,0.38-0.84,0.96-1.12,1.74l-2.92,8.34h2.22L220.92,12.64z"/>
	<path class="st0" d="M211.05,15.95c0.3,0.32,0.65,0.57,1.06,0.74c0.41,0.17,0.86,0.25,1.35,0.25c0.53,0,1-0.08,1.42-0.25
		c0.42-0.17,0.78-0.41,1.07-0.74c0.29-0.32,0.52-0.72,0.67-1.2c0.16-0.48,0.23-1.02,0.23-1.63c0-0.62-0.08-1.16-0.25-1.64
		c-0.17-0.48-0.4-0.88-0.7-1.2c-0.3-0.33-0.65-0.57-1.06-0.74c-0.41-0.17-0.86-0.25-1.35-0.25c-0.52,0-1,0.08-1.42,0.25
		c-0.42,0.17-0.78,0.42-1.07,0.74c-0.29,0.33-0.52,0.73-0.67,1.2c-0.16,0.48-0.23,1.02-0.23,1.64c0,0.61,0.08,1.16,0.25,1.63
		C210.52,15.23,210.75,15.63,211.05,15.95z M212.47,11.46c0.21-0.37,0.54-0.56,1-0.56c0.47,0,0.8,0.19,1.01,0.56
		c0.21,0.37,0.31,0.93,0.31,1.66c0,0.74-0.1,1.29-0.31,1.65c-0.21,0.36-0.54,0.55-1,0.55c-0.47,0-0.81-0.18-1.02-0.55
		c-0.21-0.36-0.31-0.91-0.31-1.65C212.15,12.38,212.26,11.83,212.47,11.46z"/>
	<path class="st0" d="M204,13.32c0-0.39,0.02-0.74,0.07-1.04c0.04-0.3,0.12-0.56,0.22-0.77c0.1-0.21,0.24-0.36,0.42-0.47
		c0.18-0.11,0.4-0.16,0.66-0.16c0.35,0,0.61,0.13,0.77,0.4c0.16,0.27,0.24,0.67,0.24,1.2v4.32h2.02v-4.82
		c0-0.48-0.06-0.88-0.17-1.22c-0.11-0.34-0.28-0.62-0.49-0.84c-0.21-0.22-0.46-0.38-0.76-0.49c-0.3-0.1-0.62-0.15-0.99-0.15
		c-0.21,0-0.42,0.02-0.62,0.06c-0.2,0.04-0.39,0.11-0.58,0.2c-0.18,0.09-0.35,0.2-0.5,0.33c-0.15,0.13-0.28,0.3-0.39,0.49h-0.11
		l-0.27-0.95h-1.54v7.39H204V13.32z"/>
	<path class="st0" d="M195.65,16.92c0.06,0.01,0.12,0.01,0.19,0.01c0.06,0,0.12,0,0.17,0c0.25,0,0.47-0.03,0.66-0.09
		c0.19-0.06,0.36-0.14,0.52-0.25c0.15-0.11,0.29-0.24,0.41-0.39c0.12-0.15,0.24-0.33,0.34-0.52h0.1l0.3,1.11h1.53V9.41h-2.02v3.76
		c0,0.35-0.04,0.64-0.13,0.88c-0.09,0.24-0.21,0.43-0.36,0.58c-0.16,0.15-0.34,0.26-0.56,0.32c-0.22,0.07-0.46,0.1-0.72,0.1
		c-0.04,0-0.1,0-0.17,0c-0.07,0-0.13-0.01-0.2-0.01c-0.07-0.01-0.13-0.02-0.2-0.02c-0.06-0.01-0.11-0.02-0.15-0.03v1.89
		c0.03,0.01,0.07,0.02,0.12,0.02C195.54,16.91,195.59,16.91,195.65,16.92z"/>
	<rect x="188.46" y="9.41" class="st0" width="2.02" height="10.29"/>
	<path class="st0" d="M184.56,19.49c0.1,0.08,0.22,0.13,0.35,0.16c0.13,0.03,0.27,0.05,0.42,0.05c0.15,0,0.29-0.02,0.43-0.05
		c0.13-0.03,0.25-0.09,0.35-0.16c0.1-0.08,0.18-0.18,0.23-0.3c0.06-0.13,0.09-0.28,0.09-0.47c0-0.19-0.03-0.34-0.09-0.47
		c-0.06-0.13-0.14-0.23-0.23-0.31c-0.1-0.08-0.22-0.13-0.35-0.16c-0.13-0.03-0.28-0.05-0.43-0.05c-0.15,0-0.29,0.02-0.42,0.05
		c-0.13,0.03-0.25,0.09-0.35,0.16c-0.1,0.08-0.18,0.18-0.24,0.31c-0.06,0.13-0.09,0.28-0.09,0.47c0,0.19,0.03,0.35,0.09,0.47
		C184.38,19.31,184.46,19.41,184.56,19.49z"/>
	<rect x="184.32" y="9.41" class="st0" width="2.02" height="7.39"/>
	<path class="st0" d="M179.44,19.77c0.37,0,0.71-0.04,1.01-0.12c0.3-0.08,0.56-0.21,0.77-0.39c0.21-0.19,0.38-0.43,0.49-0.74
		c0.11-0.31,0.17-0.7,0.17-1.17V16.8l1.11-0.54v-0.97h-1.11V9.41h-2.02v5.88h-1.5v1.51h1.5v0.46c0,0.26-0.05,0.48-0.16,0.65
		c-0.11,0.17-0.29,0.25-0.56,0.25c-0.2,0-0.38-0.02-0.53-0.06c-0.15-0.04-0.29-0.08-0.43-0.13l-0.48,1.48
		c0.19,0.08,0.43,0.15,0.71,0.22C178.7,19.74,179.04,19.77,179.44,19.77z"/>
	<path class="st0" d="M171.66,16.07c0.28,0.29,0.61,0.5,1,0.65c0.39,0.15,0.84,0.22,1.33,0.22c0.5,0,0.96-0.08,1.37-0.24
		c0.41-0.16,0.76-0.41,1.06-0.73c0.29-0.32,0.52-0.73,0.68-1.21c0.16-0.49,0.24-1.05,0.24-1.7c0-0.64-0.09-1.2-0.27-1.67
		c-0.18-0.47-0.43-0.87-0.75-1.18c-0.32-0.31-0.7-0.54-1.15-0.7c-0.45-0.15-0.93-0.23-1.46-0.23c-0.27,0-0.52,0.01-0.75,0.03
		c-0.23,0.02-0.44,0.05-0.64,0.1c-0.2,0.04-0.39,0.1-0.57,0.16c-0.18,0.06-0.36,0.14-0.53,0.23v1.56c0.19-0.1,0.38-0.18,0.57-0.26
		c0.19-0.07,0.37-0.13,0.56-0.18c0.19-0.05,0.39-0.09,0.59-0.11c0.2-0.02,0.41-0.04,0.64-0.04c0.27,0,0.51,0.04,0.72,0.13
		c0.21,0.08,0.39,0.2,0.54,0.36c0.15,0.16,0.26,0.35,0.34,0.58c0.08,0.23,0.13,0.48,0.14,0.76h-4.51v0.98
		c0,0.54,0.07,1.01,0.22,1.43C171.17,15.43,171.38,15.78,171.66,16.07z M175.27,13.94c-0.04,0.54-0.17,0.93-0.41,1.18
		c-0.24,0.25-0.53,0.38-0.89,0.38c-0.21,0-0.4-0.04-0.56-0.12c-0.16-0.08-0.29-0.19-0.4-0.33c-0.11-0.14-0.19-0.3-0.24-0.49
		c-0.05-0.19-0.08-0.4-0.09-0.62H175.27z"/>
	<path class="st0" d="M167.41,11.22c0.11,0.09,0.23,0.15,0.37,0.19c0.14,0.04,0.29,0.06,0.44,0.06c0.16,0,0.31-0.02,0.46-0.06
		c0.14-0.04,0.26-0.1,0.37-0.19c0.11-0.09,0.19-0.2,0.25-0.35c0.06-0.14,0.09-0.32,0.09-0.53c0-0.2-0.03-0.37-0.09-0.51
		c-0.06-0.14-0.14-0.26-0.25-0.35c-0.11-0.09-0.23-0.16-0.37-0.2c-0.14-0.04-0.29-0.06-0.46-0.06c-0.15,0-0.3,0.02-0.44,0.06
		c-0.14,0.04-0.26,0.11-0.37,0.2c-0.11,0.09-0.19,0.21-0.25,0.35c-0.06,0.14-0.09,0.31-0.09,0.51c0,0.21,0.03,0.38,0.09,0.53
		C167.22,11.02,167.3,11.14,167.41,11.22z"/>
	<polygon class="st0" points="169.02,12.61 167.4,12.61 167.07,19.07 169.35,19.07 	"/>
	<rect x="298.6" y="31.88" width="2.28" height="13.77"/>
	<path d="M299.73,47.93c-0.37,0-0.68,0.12-0.95,0.36c-0.26,0.24-0.4,0.6-0.4,1.08c0,0.25,0.04,0.47,0.11,0.65
		c0.07,0.18,0.17,0.33,0.29,0.45c0.12,0.12,0.26,0.2,0.43,0.26c0.16,0.05,0.34,0.08,0.52,0.08c0.38,0,0.69-0.11,0.95-0.34
		c0.25-0.23,0.38-0.59,0.38-1.09c0-0.49-0.13-0.86-0.38-1.09C300.42,48.05,300.11,47.93,299.73,47.93z"/>
	<path d="M291.96,39.02c0,0.8-0.06,1.51-0.17,2.13c-0.11,0.62-0.3,1.14-0.56,1.57c-0.26,0.43-0.61,0.75-1.05,0.97
		c-0.43,0.22-0.97,0.33-1.62,0.33c-0.88,0-1.52-0.27-1.94-0.82c-0.41-0.54-0.62-1.36-0.62-2.44v-8.87h-2.29v7.6
		c0,0.74-0.06,1.39-0.19,1.95c-0.12,0.56-0.32,1.04-0.6,1.42c-0.27,0.38-0.62,0.67-1.05,0.87c-0.43,0.2-0.94,0.29-1.55,0.29
		c-0.88,0-1.53-0.27-1.94-0.82c-0.42-0.54-0.63-1.36-0.63-2.44v-8.87h-2.28v8.99c0,1.76,0.37,3.03,1.11,3.83
		c0.74,0.8,1.84,1.2,3.3,1.2c0.42,0,0.83-0.05,1.23-0.14c0.4-0.09,0.78-0.23,1.15-0.42c0.36-0.19,0.7-0.42,1-0.71
		c0.3-0.28,0.57-0.62,0.78-1.02h0.1c0.32,0.79,0.81,1.36,1.47,1.73c0.66,0.37,1.5,0.55,2.5,0.55c0.38,0,0.76-0.04,1.13-0.12
		c0.37-0.08,0.72-0.21,1.05-0.39c0.33-0.17,0.63-0.4,0.91-0.66c0.28-0.26,0.51-0.58,0.72-0.93h0.13l0.33,1.86h1.86V31.88h-2.28
		V39.02z"/>
	<path d="M272.23,35.73c0-0.7-0.1-1.31-0.3-1.82c-0.2-0.51-0.48-0.94-0.83-1.28c-0.36-0.34-0.77-0.59-1.26-0.75
		c-0.48-0.16-1.02-0.24-1.59-0.24c-0.53,0-0.99,0.04-1.39,0.12c-0.4,0.08-0.77,0.21-1.09,0.39c-0.33,0.17-0.63,0.4-0.9,0.67
		c-0.28,0.27-0.55,0.6-0.83,0.97h-0.1l-0.46-1.91h-1.64v9.43c0,0.82,0.1,1.52,0.3,2.09c0.2,0.58,0.5,1.05,0.91,1.42
		c0.41,0.37,0.92,0.64,1.54,0.82c0.62,0.17,1.36,0.26,2.21,0.26c0.84,0,1.64-0.12,2.4-0.35c0.76-0.23,1.45-0.52,2.07-0.85l-0.8-1.72
		c-0.55,0.28-1.13,0.53-1.72,0.73c-0.6,0.2-1.24,0.3-1.94,0.3c-0.43,0-0.82-0.05-1.16-0.15c-0.34-0.1-0.62-0.27-0.85-0.5
		c-0.23-0.23-0.41-0.53-0.53-0.91c-0.12-0.38-0.18-0.84-0.18-1.4v-0.87l2.31-0.09c1.97-0.07,3.44-0.47,4.41-1.2
		C271.75,38.16,272.23,37.1,272.23,35.73z M269.66,36.85c-0.13,0.34-0.35,0.63-0.66,0.86c-0.3,0.24-0.71,0.42-1.22,0.56
		c-0.51,0.13-1.14,0.22-1.89,0.25l-1.79,0.09v-1.24c0-0.66,0.09-1.23,0.27-1.72c0.18-0.49,0.43-0.9,0.75-1.22
		c0.32-0.32,0.69-0.56,1.13-0.72c0.43-0.16,0.91-0.24,1.42-0.24c0.66,0,1.19,0.18,1.6,0.54c0.41,0.36,0.61,0.92,0.61,1.69
		C269.86,36.13,269.8,36.52,269.66,36.85z"/>
	<path d="M257.99,26.74c-0.44-0.33-1-0.59-1.67-0.77c-0.67-0.18-1.45-0.26-2.35-0.26c-1.16,0-2.17,0.11-3.03,0.33
		c-0.86,0.22-1.57,0.53-2.13,0.93c-0.56,0.41-0.98,0.9-1.25,1.49c-0.27,0.59-0.41,1.25-0.41,1.98c0,0.51,0.08,0.99,0.23,1.45
		c0.15,0.46,0.39,0.85,0.73,1.19c0.34,0.33,0.78,0.6,1.31,0.8c0.54,0.2,1.19,0.29,1.97,0.29h2.21c0.26,0,0.51,0.01,0.74,0.04
		c0.23,0.03,0.44,0.08,0.61,0.15c0.17,0.08,0.31,0.18,0.41,0.32c0.1,0.14,0.15,0.32,0.15,0.55c0,0.2-0.04,0.38-0.11,0.55
		c-0.07,0.17-0.16,0.32-0.28,0.45c-0.11,0.13-0.24,0.25-0.38,0.36c-0.14,0.1-0.28,0.2-0.42,0.28c-0.12-0.03-0.27-0.04-0.45-0.04
		c-0.18-0.01-0.37-0.01-0.55-0.01c-0.78,0-1.46,0.11-2.04,0.33c-0.58,0.22-1.08,0.53-1.47,0.92c-0.4,0.39-0.69,0.86-0.89,1.4
		c-0.2,0.54-0.29,1.13-0.29,1.76c0,0.58,0.08,1.09,0.24,1.55c0.16,0.46,0.36,0.83,0.59,1.12l-2.47,0.34v1.42h4.55
		c0.23,0.08,0.5,0.14,0.83,0.18c0.33,0.05,0.65,0.07,0.96,0.07c0.81,0,1.52-0.11,2.13-0.33c0.61-0.22,1.12-0.53,1.53-0.94
		c0.41-0.41,0.72-0.91,0.93-1.49c0.21-0.59,0.31-1.25,0.31-1.99c0-0.43-0.06-0.84-0.17-1.24c-0.11-0.4-0.27-0.77-0.48-1.11
		c-0.2-0.34-0.46-0.64-0.75-0.9c-0.3-0.26-0.62-0.47-0.98-0.62c0.58-0.35,1-0.71,1.27-1.09s0.4-0.81,0.4-1.32
		c0-0.44-0.11-0.84-0.34-1.18c-0.23-0.34-0.51-0.59-0.86-0.75c0.39-0.09,0.77-0.23,1.13-0.4c0.36-0.17,0.68-0.4,0.96-0.68
		c0.28-0.28,0.49-0.6,0.66-0.98c0.16-0.38,0.24-0.82,0.24-1.32c0-0.59-0.11-1.13-0.33-1.6C258.76,27.48,258.43,27.08,257.99,26.74z
		 M256.01,41.22c0,1.02-0.22,1.78-0.66,2.28c-0.44,0.5-1.08,0.75-1.91,0.75c-0.84,0-1.47-0.24-1.91-0.73
		c-0.44-0.48-0.66-1.24-0.66-2.27c0-1,0.22-1.72,0.65-2.19c0.43-0.46,1.06-0.7,1.9-0.7c0.83,0,1.47,0.23,1.92,0.7
		C255.78,39.55,256.01,40.26,256.01,41.22z M256.9,30.87c-0.17,0.32-0.39,0.58-0.65,0.76c-0.26,0.18-0.55,0.31-0.87,0.38
		c-0.32,0.07-0.62,0.1-0.92,0.1h-2.21c-0.54,0-1-0.02-1.38-0.07s-0.68-0.14-0.91-0.28s-0.4-0.33-0.5-0.57
		c-0.1-0.24-0.15-0.56-0.15-0.94c0-0.9,0.39-1.59,1.16-2.08c0.77-0.48,1.94-0.72,3.49-0.72c0.6,0,1.11,0.06,1.51,0.17
		c0.41,0.11,0.73,0.27,0.98,0.46c0.25,0.19,0.42,0.42,0.53,0.69c0.11,0.27,0.16,0.56,0.16,0.87
		C257.16,30.14,257.07,30.55,256.9,30.87z"/>
	<path d="M243.33,33.45c-0.55-0.59-1.2-1.05-1.96-1.35c-0.76-0.31-1.6-0.46-2.52-0.46c-0.43,0-0.82,0.02-1.18,0.05
		c-0.36,0.03-0.72,0.09-1.05,0.16c-0.34,0.07-0.67,0.17-0.99,0.29c-0.32,0.12-0.65,0.26-0.98,0.41v2.03
		c0.33-0.15,0.65-0.29,0.97-0.41c0.32-0.12,0.65-0.22,0.98-0.3c0.34-0.08,0.69-0.14,1.05-0.18c0.36-0.04,0.76-0.06,1.18-0.06
		c1.26,0,2.21,0.38,2.85,1.14c0.64,0.76,0.98,1.95,1.02,3.56h-8.68v1.42c0,0.92,0.12,1.76,0.37,2.51c0.25,0.76,0.6,1.4,1.06,1.94
		c0.46,0.54,1.02,0.96,1.68,1.25c0.66,0.3,1.4,0.44,2.23,0.44c0.84,0,1.62-0.16,2.31-0.49c0.7-0.33,1.3-0.8,1.8-1.42
		c0.5-0.62,0.89-1.38,1.17-2.28c0.28-0.9,0.41-1.91,0.41-3.05c0-1.13-0.15-2.13-0.45-3.01C244.31,34.78,243.88,34.04,243.33,33.45z
		 M241.68,43.03c-0.56,0.65-1.31,0.98-2.26,0.98c-0.52,0-0.96-0.09-1.33-0.28c-0.37-0.18-0.67-0.44-0.91-0.78
		c-0.24-0.33-0.41-0.74-0.53-1.21c-0.11-0.47-0.17-0.99-0.17-1.56h6.17C242.56,41.43,242.24,42.38,241.68,43.03z"/>
	<path d="M229.87,33.43c-0.46-0.6-1.01-1.05-1.66-1.35c-0.64-0.3-1.35-0.45-2.13-0.45c-0.5,0-0.95,0.05-1.35,0.16
		c-0.4,0.11-0.76,0.26-1.09,0.45c-0.32,0.19-0.61,0.42-0.85,0.67c-0.25,0.25-0.46,0.52-0.65,0.81h-0.1l-0.34-1.84h-1.84v19.51h2.28
		v-5.47c0-0.13-0.01-0.32-0.03-0.55c-0.02-0.23-0.03-0.45-0.05-0.67c-0.03-0.26-0.05-0.53-0.07-0.82h0.15
		c0.18,0.27,0.4,0.52,0.65,0.77c0.25,0.24,0.54,0.46,0.86,0.64c0.32,0.18,0.68,0.33,1.08,0.44c0.4,0.11,0.85,0.16,1.34,0.16
		c0.78,0,1.49-0.15,2.13-0.46c0.64-0.3,1.2-0.76,1.66-1.36c0.46-0.6,0.82-1.35,1.07-2.24c0.25-0.89,0.38-1.92,0.38-3.1
		c0-1.17-0.13-2.2-0.38-3.09C230.69,34.77,230.33,34.03,229.87,33.43z M228.16,42.64c-0.53,0.91-1.36,1.37-2.49,1.37
		c-0.68,0-1.24-0.12-1.69-0.34c-0.45-0.23-0.81-0.57-1.09-1.02c-0.27-0.45-0.46-1-0.58-1.66c-0.11-0.66-0.17-1.41-0.17-2.25v-0.51
		c0.02-0.79,0.09-1.47,0.22-2.06c0.13-0.59,0.33-1.08,0.6-1.47c0.27-0.39,0.63-0.69,1.07-0.88c0.44-0.19,0.98-0.29,1.61-0.29
		c1.15,0,1.98,0.43,2.51,1.29c0.53,0.86,0.8,2.16,0.8,3.91C228.96,40.42,228.69,41.73,228.16,42.64z"/>
	<path d="M214.54,33.45c-0.55-0.59-1.2-1.05-1.96-1.35c-0.76-0.31-1.6-0.46-2.52-0.46c-0.43,0-0.82,0.02-1.18,0.05
		c-0.36,0.03-0.72,0.09-1.05,0.16c-0.34,0.07-0.67,0.17-0.99,0.29c-0.32,0.12-0.65,0.26-0.98,0.41v2.03
		c0.33-0.15,0.65-0.29,0.97-0.41c0.32-0.12,0.65-0.22,0.98-0.3c0.34-0.08,0.69-0.14,1.05-0.18c0.36-0.04,0.76-0.06,1.18-0.06
		c1.26,0,2.21,0.38,2.85,1.14c0.64,0.76,0.98,1.95,1.02,3.56h-8.68v1.42c0,0.92,0.12,1.76,0.37,2.51c0.25,0.76,0.6,1.4,1.06,1.94
		c0.46,0.54,1.02,0.96,1.68,1.25c0.66,0.3,1.4,0.44,2.23,0.44c0.84,0,1.62-0.16,2.31-0.49c0.7-0.33,1.3-0.8,1.8-1.42
		c0.5-0.62,0.89-1.38,1.17-2.28c0.28-0.9,0.41-1.91,0.41-3.05c0-1.13-0.15-2.13-0.45-3.01S215.09,34.04,214.54,33.45z M212.89,43.03
		c-0.56,0.65-1.31,0.98-2.26,0.98c-0.52,0-0.96-0.09-1.33-0.28c-0.37-0.18-0.67-0.44-0.91-0.78c-0.24-0.33-0.41-0.74-0.53-1.21
		c-0.11-0.47-0.17-0.99-0.17-1.56h6.17C213.77,41.43,213.44,42.38,212.89,43.03z"/>
	<path d="M199.48,31.59c0,0.13,0.01,0.32,0.03,0.55c0.02,0.23,0.03,0.45,0.05,0.67c0.03,0.26,0.05,0.53,0.08,0.81h-0.15
		c-0.19-0.27-0.41-0.52-0.66-0.76c-0.25-0.24-0.53-0.45-0.85-0.63c-0.32-0.18-0.68-0.32-1.09-0.43c-0.4-0.11-0.85-0.16-1.34-0.16
		c-0.79,0-1.5,0.15-2.14,0.46c-0.64,0.3-1.19,0.76-1.65,1.36c-0.46,0.6-0.81,1.35-1.06,2.24c-0.25,0.89-0.38,1.92-0.38,3.1
		c0,1.17,0.13,2.2,0.38,3.09c0.25,0.89,0.6,1.63,1.06,2.23c0.46,0.6,1.01,1.05,1.65,1.35c0.64,0.3,1.36,0.45,2.14,0.45
		c0.5,0,0.95-0.06,1.35-0.17c0.4-0.11,0.76-0.26,1.09-0.45c0.32-0.19,0.6-0.41,0.85-0.66c0.24-0.25,0.46-0.53,0.65-0.82h0.1
		l0.33,1.86h1.86V25.71h-2.28V31.59z M199.48,39.31c-0.02,0.79-0.09,1.48-0.22,2.07s-0.33,1.07-0.6,1.47
		c-0.27,0.39-0.63,0.68-1.07,0.88c-0.44,0.19-0.98,0.29-1.61,0.29c-1.15,0-1.98-0.43-2.51-1.29c-0.53-0.86-0.8-2.16-0.8-3.9
		c0-1.7,0.27-3.01,0.8-3.92c0.53-0.91,1.36-1.37,2.49-1.37c0.68,0,1.24,0.12,1.69,0.34c0.45,0.23,0.81,0.57,1.08,1.02
		c0.27,0.45,0.46,1,0.58,1.66c0.11,0.66,0.17,1.41,0.17,2.25V39.31z"/>
	<path d="M185.79,33.49c-0.53-0.61-1.16-1.07-1.89-1.39c-0.73-0.32-1.52-0.48-2.38-0.48c-0.93,0-1.76,0.16-2.51,0.48
		c-0.74,0.32-1.38,0.78-1.9,1.39c-0.52,0.61-0.92,1.35-1.2,2.24c-0.28,0.89-0.42,1.91-0.42,3.05c0,1.14,0.15,2.15,0.44,3.03
		c0.3,0.88,0.71,1.63,1.24,2.23c0.53,0.61,1.16,1.07,1.89,1.38c0.73,0.31,1.52,0.47,2.38,0.47c0.93,0,1.77-0.16,2.51-0.47
		c0.75-0.31,1.38-0.77,1.9-1.38c0.52-0.61,0.92-1.35,1.2-2.23c0.28-0.88,0.42-1.89,0.42-3.03c0-1.15-0.15-2.16-0.45-3.05
		C186.73,34.85,186.32,34.1,185.79,33.49z M184.27,42.71c-0.56,0.86-1.49,1.3-2.78,1.3c-1.29,0-2.22-0.43-2.79-1.3
		c-0.57-0.86-0.86-2.17-0.86-3.92c0-1.75,0.28-3.06,0.85-3.94c0.57-0.88,1.49-1.32,2.78-1.32c1.29,0,2.22,0.44,2.79,1.32
		c0.57,0.88,0.86,2.2,0.86,3.94C185.12,40.54,184.84,41.85,184.27,42.71z"/>
	<path d="M171.71,35.95c0-0.84-0.09-1.54-0.28-2.1c-0.18-0.56-0.44-1-0.76-1.32c-0.32-0.33-0.7-0.56-1.15-0.69
		c-0.44-0.13-0.92-0.2-1.44-0.2c-0.21,0-0.42,0.01-0.64,0.03c-0.22,0.02-0.43,0.05-0.63,0.09c-0.2,0.04-0.38,0.08-0.55,0.13
		c-0.17,0.05-0.3,0.1-0.41,0.15v1.73c0.08-0.03,0.19-0.05,0.33-0.09c0.15-0.03,0.31-0.06,0.48-0.09c0.18-0.03,0.36-0.05,0.55-0.06
		c0.19-0.02,0.36-0.02,0.51-0.02c0.6,0,1.03,0.2,1.3,0.61c0.26,0.41,0.4,1.02,0.4,1.83v7.99h-3.46v1.72h3.46v3.16h1.32l0.98-2.88
		l1.94-0.98v-1.02h-1.94V35.95z"/>
	<path class="st1" d="M162.16,33.39c-0.61-0.59-1.34-1.03-2.18-1.32c-0.84-0.29-1.77-0.44-2.77-0.44c-0.52,0-0.99,0.02-1.43,0.06
		c-0.43,0.04-0.84,0.1-1.22,0.18c-0.38,0.08-0.73,0.19-1.07,0.31c-0.34,0.12-0.68,0.27-1.01,0.45v2.96
		c0.37-0.18,0.73-0.34,1.08-0.48c0.35-0.14,0.71-0.25,1.07-0.34c0.36-0.09,0.73-0.16,1.11-0.21c0.38-0.05,0.78-0.07,1.21-0.07
		c0.51,0,0.96,0.08,1.36,0.24c0.4,0.16,0.74,0.39,1.02,0.68c0.28,0.3,0.5,0.66,0.65,1.09c0.15,0.43,0.24,0.91,0.26,1.45h-8.55v1.86
		c0,1.02,0.14,1.92,0.42,2.71c0.28,0.79,0.68,1.46,1.2,2c0.52,0.54,1.16,0.96,1.91,1.24c0.75,0.28,1.59,0.42,2.51,0.42
		c0.95,0,1.82-0.15,2.6-0.46c0.78-0.31,1.45-0.77,2.01-1.39c0.56-0.61,0.99-1.38,1.3-2.3c0.31-0.92,0.46-1.99,0.46-3.22
		c0-1.21-0.17-2.27-0.51-3.17C163.24,34.73,162.77,33.98,162.16,33.39z M159.38,42.73c-0.45,0.48-1.01,0.71-1.69,0.71
		c-0.4,0-0.75-0.07-1.05-0.23c-0.3-0.15-0.55-0.36-0.75-0.62c-0.2-0.26-0.35-0.58-0.45-0.93c-0.1-0.36-0.15-0.75-0.16-1.18h4.88
		C160.08,41.5,159.83,42.25,159.38,42.73z"/>
	<polygon class="st1" points="150.32,31.88 145.98,31.88 143.41,36.42 140.84,31.88 136.5,31.88 141.28,39.04 136.7,45.9 
		141.04,45.9 143.41,41.69 145.74,45.9 150.08,45.9 145.57,39.04 	"/>
	<path class="st1" d="M130.55,31.39c0,0.12,0.01,0.3,0.03,0.53c0.02,0.23,0.04,0.45,0.07,0.67c0.03,0.26,0.07,0.53,0.1,0.83h-0.2
		c-0.18-0.23-0.37-0.46-0.59-0.67c-0.22-0.21-0.47-0.4-0.75-0.57c-0.28-0.17-0.61-0.3-0.97-0.4c-0.36-0.1-0.78-0.15-1.23-0.15
		c-0.73,0-1.39,0.15-2,0.46c-0.61,0.31-1.13,0.77-1.57,1.39c-0.44,0.61-0.78,1.37-1.02,2.28c-0.24,0.91-0.36,1.96-0.36,3.15
		c0,1.19,0.12,2.23,0.35,3.13c0.23,0.9,0.56,1.66,0.99,2.27s0.94,1.07,1.53,1.38c0.59,0.31,1.25,0.46,1.98,0.46
		c0.46,0,0.88-0.06,1.25-0.17c0.38-0.11,0.71-0.26,1.01-0.45c0.3-0.19,0.56-0.41,0.78-0.66c0.23-0.25,0.43-0.52,0.6-0.8h0.17
		l0.54,1.82h3.11V25.71h-3.82V31.39z M130.55,39.36c-0.02,0.63-0.07,1.18-0.15,1.65c-0.08,0.47-0.22,0.86-0.4,1.17
		c-0.18,0.31-0.42,0.54-0.72,0.7c-0.3,0.15-0.66,0.23-1.08,0.23c-0.78,0-1.34-0.34-1.7-1.03c-0.36-0.69-0.53-1.72-0.53-3.1
		c0-1.38,0.18-2.43,0.53-3.15c0.36-0.72,0.91-1.09,1.67-1.09c0.45,0,0.83,0.09,1.13,0.28c0.31,0.18,0.55,0.45,0.73,0.81
		c0.18,0.36,0.32,0.8,0.39,1.32c0.08,0.53,0.12,1.13,0.12,1.81V39.36z"/>
	<path class="st1" d="M114.93,39.02c0,0.66-0.08,1.22-0.24,1.67c-0.16,0.46-0.39,0.82-0.69,1.1c-0.3,0.28-0.65,0.48-1.07,0.61
		c-0.41,0.12-0.87,0.19-1.36,0.19c-0.08,0-0.19,0-0.31-0.01c-0.12,0-0.25-0.01-0.38-0.03c-0.13-0.01-0.25-0.03-0.37-0.04
		c-0.12-0.02-0.21-0.03-0.28-0.05v3.59c0.05,0.02,0.12,0.03,0.22,0.04c0.1,0.01,0.2,0.03,0.31,0.04c0.11,0.01,0.23,0.02,0.35,0.03
		c0.12,0,0.23,0.01,0.33,0.01c0.47,0,0.88-0.06,1.25-0.17c0.36-0.11,0.69-0.27,0.98-0.48s0.55-0.45,0.78-0.75
		c0.23-0.29,0.45-0.62,0.65-0.98h0.19l0.56,2.11h2.9V31.88h-3.82V39.02z"/>
	<path class="st1" d="M106.41,33.39c-0.61-0.59-1.34-1.03-2.18-1.32c-0.84-0.29-1.77-0.44-2.77-0.44c-0.52,0-0.99,0.02-1.43,0.06
		c-0.43,0.04-0.84,0.1-1.22,0.18c-0.38,0.08-0.73,0.19-1.07,0.31c-0.34,0.12-0.68,0.27-1.01,0.45v2.96
		c0.37-0.18,0.73-0.34,1.08-0.48c0.35-0.14,0.71-0.25,1.07-0.34c0.36-0.09,0.73-0.16,1.11-0.21c0.38-0.05,0.78-0.07,1.21-0.07
		c0.51,0,0.96,0.08,1.36,0.24c0.4,0.16,0.74,0.39,1.02,0.68c0.28,0.3,0.5,0.66,0.65,1.09c0.15,0.43,0.24,0.91,0.26,1.45h-8.55v1.86
		c0,1.02,0.14,1.92,0.42,2.71c0.28,0.79,0.68,1.46,1.2,2c0.52,0.54,1.16,0.96,1.91,1.24c0.75,0.28,1.59,0.42,2.51,0.42
		c0.95,0,1.82-0.15,2.6-0.46c0.78-0.31,1.45-0.77,2.01-1.39c0.56-0.61,0.99-1.38,1.3-2.3c0.31-0.92,0.46-1.99,0.46-3.22
		c0-1.21-0.17-2.27-0.51-3.17C107.49,34.73,107.02,33.98,106.41,33.39z M103.63,42.73c-0.45,0.48-1.01,0.71-1.69,0.71
		c-0.4,0-0.75-0.07-1.05-0.23c-0.3-0.15-0.55-0.36-0.75-0.62c-0.2-0.26-0.35-0.58-0.45-0.93c-0.1-0.36-0.15-0.75-0.16-1.18h4.88
		C104.33,41.5,104.08,42.25,103.63,42.73z"/>
	<path class="st1" d="M92.61,39.57c-0.29-0.33-0.66-0.64-1.1-0.91c-0.45-0.27-0.98-0.55-1.59-0.82c-0.63-0.28-1.13-0.52-1.5-0.72
		c-0.37-0.2-0.65-0.37-0.85-0.53c-0.19-0.15-0.32-0.3-0.37-0.44c-0.05-0.14-0.08-0.29-0.08-0.47c0-0.17,0.04-0.34,0.11-0.49
		c0.07-0.15,0.18-0.29,0.34-0.4c0.15-0.11,0.35-0.2,0.6-0.26c0.24-0.06,0.53-0.09,0.88-0.09c0.31,0,0.65,0.03,1.01,0.09
		c0.36,0.06,0.74,0.14,1.12,0.25c0.39,0.1,0.77,0.23,1.16,0.37c0.39,0.14,0.76,0.3,1.11,0.48v-3.16c-0.33-0.15-0.66-0.28-0.99-0.38
		c-0.33-0.1-0.66-0.18-1.02-0.25c-0.35-0.07-0.72-0.12-1.12-0.14c-0.39-0.03-0.82-0.04-1.28-0.04c-0.87,0-1.65,0.09-2.36,0.28
		c-0.7,0.18-1.3,0.46-1.79,0.83c-0.49,0.37-0.87,0.83-1.14,1.38c-0.27,0.55-0.4,1.2-0.4,1.93c0,0.62,0.09,1.14,0.28,1.58
		c0.18,0.43,0.45,0.81,0.79,1.14c0.34,0.33,0.75,0.62,1.23,0.87c0.48,0.26,1.01,0.51,1.61,0.77c0.51,0.23,0.92,0.43,1.24,0.6
		c0.32,0.16,0.56,0.31,0.74,0.45c0.17,0.14,0.29,0.27,0.35,0.4c0.06,0.13,0.09,0.28,0.09,0.45c0,0.32-0.11,0.57-0.34,0.75
		c-0.23,0.18-0.6,0.28-1.12,0.28c-0.58,0-1.15-0.1-1.73-0.29c-0.58-0.19-1.18-0.44-1.82-0.74l-1.15,2.71
		c0.79,0.38,1.57,0.67,2.32,0.86c0.75,0.19,1.55,0.29,2.38,0.29c0.79,0,1.52-0.08,2.16-0.24c0.65-0.16,1.2-0.41,1.66-0.73
		c0.46-0.33,0.82-0.73,1.07-1.22c0.25-0.49,0.38-1.06,0.38-1.71c0-0.59-0.07-1.11-0.21-1.54C93.11,40.29,92.9,39.9,92.61,39.57z"/>
	<path class="st1" d="M80.26,39.57c-0.29-0.33-0.66-0.64-1.1-0.91c-0.45-0.27-0.98-0.55-1.59-0.82c-0.63-0.28-1.13-0.52-1.5-0.72
		c-0.37-0.2-0.65-0.37-0.85-0.53c-0.19-0.15-0.32-0.3-0.37-0.44c-0.05-0.14-0.08-0.29-0.08-0.47c0-0.17,0.04-0.34,0.11-0.49
		c0.07-0.15,0.18-0.29,0.34-0.4c0.15-0.11,0.35-0.2,0.6-0.26c0.24-0.06,0.54-0.09,0.88-0.09c0.31,0,0.65,0.03,1.01,0.09
		c0.36,0.06,0.74,0.14,1.12,0.25c0.39,0.1,0.77,0.23,1.16,0.37c0.39,0.14,0.76,0.3,1.11,0.48v-3.16c-0.33-0.15-0.66-0.28-0.99-0.38
		c-0.33-0.1-0.66-0.18-1.02-0.25c-0.35-0.07-0.72-0.12-1.12-0.14c-0.39-0.03-0.82-0.04-1.28-0.04c-0.87,0-1.65,0.09-2.36,0.28
		c-0.7,0.18-1.3,0.46-1.79,0.83c-0.49,0.37-0.87,0.83-1.14,1.38c-0.27,0.55-0.4,1.2-0.4,1.93c0,0.62,0.09,1.14,0.28,1.58
		c0.18,0.43,0.45,0.81,0.79,1.14c0.34,0.33,0.75,0.62,1.23,0.87c0.48,0.26,1.01,0.51,1.61,0.77c0.51,0.23,0.92,0.43,1.24,0.6
		c0.32,0.16,0.56,0.31,0.74,0.45c0.17,0.14,0.29,0.27,0.35,0.4c0.06,0.13,0.09,0.28,0.09,0.45c0,0.32-0.11,0.57-0.34,0.75
		c-0.23,0.18-0.6,0.28-1.12,0.28c-0.58,0-1.15-0.1-1.73-0.29c-0.58-0.19-1.18-0.44-1.82-0.74l-1.15,2.71
		c0.79,0.38,1.57,0.67,2.32,0.86c0.75,0.19,1.55,0.29,2.38,0.29c0.79,0,1.52-0.08,2.16-0.24c0.65-0.16,1.2-0.41,1.66-0.73
		c0.46-0.33,0.82-0.73,1.07-1.22c0.25-0.49,0.38-1.06,0.38-1.71c0-0.59-0.07-1.11-0.21-1.54C80.76,40.29,80.54,39.9,80.26,39.57z"/>
	<path d="M67.69,31.93c-0.14-0.14-0.31-0.25-0.5-0.31c-0.19-0.07-0.4-0.1-0.63-0.1c-0.22,0-0.42,0.03-0.62,0.1
		c-0.2,0.07-0.37,0.17-0.51,0.31c-0.14,0.14-0.25,0.32-0.34,0.55c-0.08,0.22-0.13,0.49-0.13,0.8c0,0.32,0.04,0.59,0.13,0.81
		c0.08,0.22,0.2,0.4,0.34,0.54c0.14,0.14,0.31,0.24,0.51,0.3c0.2,0.06,0.4,0.09,0.62,0.09c0.23,0,0.44-0.03,0.63-0.09
		c0.19-0.06,0.36-0.16,0.5-0.3c0.14-0.14,0.25-0.32,0.34-0.54c0.08-0.22,0.13-0.49,0.13-0.81c0-0.31-0.04-0.58-0.13-0.8
		C67.94,32.26,67.83,32.07,67.69,31.93z"/>
	<path d="M59.95,33.28c-0.54-0.57-1.18-0.99-1.92-1.25c-0.74-0.26-1.53-0.39-2.37-0.39c-0.74,0-1.37,0.06-1.89,0.19
		c-0.51,0.12-1,0.31-1.45,0.55v2.03c0.45-0.21,0.95-0.39,1.5-0.55c0.55-0.15,1.16-0.23,1.84-0.23c1.24,0,2.16,0.41,2.77,1.22
		c0.61,0.81,0.91,2.1,0.91,3.87c0,1.77-0.3,3.08-0.9,3.92c-0.6,0.84-1.56,1.26-2.87,1.26c-0.22,0-0.45-0.02-0.69-0.06
		c-0.24-0.04-0.49-0.09-0.74-0.15c-0.25-0.06-0.49-0.13-0.73-0.21c-0.23-0.08-0.45-0.16-0.64-0.25l-0.68,1.93
		c0.42,0.21,0.94,0.38,1.56,0.53c0.62,0.14,1.26,0.21,1.91,0.21c0.85,0,1.65-0.13,2.39-0.39c0.74-0.26,1.39-0.68,1.95-1.25
		c0.56-0.57,0.99-1.32,1.31-2.23c0.32-0.92,0.48-2.03,0.48-3.34c0-1.25-0.15-2.33-0.46-3.22C60.92,34.58,60.49,33.85,59.95,33.28z"
		/>
	<path d="M48.12,33.49c-0.53-0.61-1.16-1.07-1.89-1.39c-0.73-0.32-1.52-0.48-2.38-0.48c-0.93,0-1.76,0.16-2.51,0.48
		c-0.74,0.32-1.38,0.78-1.9,1.39c-0.52,0.61-0.92,1.35-1.2,2.24c-0.28,0.89-0.42,1.91-0.42,3.05c0,1.14,0.15,2.15,0.44,3.03
		c0.3,0.88,0.71,1.63,1.24,2.23c0.53,0.61,1.16,1.07,1.89,1.38c0.73,0.31,1.52,0.47,2.38,0.47c0.93,0,1.77-0.16,2.51-0.47
		c0.75-0.31,1.38-0.77,1.9-1.38c0.52-0.61,0.92-1.35,1.2-2.23c0.28-0.88,0.42-1.89,0.42-3.03c0-1.15-0.15-2.16-0.45-3.05
		C49.06,34.85,48.65,34.1,48.12,33.49z M46.6,42.71c-0.56,0.86-1.49,1.3-2.78,1.3c-1.29,0-2.22-0.43-2.79-1.3
		c-0.57-0.86-0.86-2.17-0.86-3.92c0-1.75,0.28-3.06,0.85-3.94c0.57-0.88,1.49-1.32,2.78-1.32c1.29,0,2.22,0.44,2.79,1.32
		c0.57,0.88,0.86,2.2,0.86,3.94C47.45,40.54,47.16,41.85,46.6,42.71z"/>
	<path d="M31.93,39.02c0,0.8-0.06,1.51-0.17,2.13c-0.11,0.62-0.3,1.14-0.56,1.57c-0.26,0.43-0.61,0.75-1.05,0.97
		c-0.43,0.22-0.97,0.33-1.62,0.33c-0.88,0-1.52-0.27-1.94-0.82c-0.41-0.54-0.62-1.36-0.62-2.44v-8.87h-2.29v7.6
		c0,0.74-0.06,1.39-0.19,1.95c-0.12,0.56-0.32,1.04-0.6,1.42c-0.27,0.38-0.62,0.67-1.05,0.87c-0.43,0.2-0.94,0.29-1.55,0.29
		c-0.88,0-1.53-0.27-1.94-0.82c-0.42-0.54-0.63-1.36-0.63-2.44v-8.87h-2.28v8.99c0,1.76,0.37,3.03,1.11,3.83
		c0.74,0.8,1.84,1.2,3.3,1.2c0.42,0,0.83-0.05,1.23-0.14c0.4-0.09,0.78-0.23,1.15-0.42c0.36-0.19,0.7-0.42,1-0.71
		c0.3-0.28,0.57-0.62,0.78-1.02h0.1c0.32,0.79,0.81,1.36,1.47,1.73c0.66,0.37,1.5,0.55,2.5,0.55c0.38,0,0.76-0.04,1.13-0.12
		c0.37-0.08,0.72-0.21,1.05-0.39c0.33-0.17,0.63-0.4,0.91-0.66c0.28-0.26,0.51-0.58,0.72-0.93h0.13l0.33,1.86h1.86V31.88h-2.28
		V39.02z"/>
	<path d="M10.36,44.09c-0.49-0.47-1.06-0.83-1.73-1.1c-0.66-0.27-1.39-0.4-2.17-0.4c-0.78,0-1.51,0.13-2.18,0.4
		c-0.67,0.27-1.25,0.63-1.74,1.1c-0.49,0.47-0.88,1.02-1.16,1.66c-0.28,0.64-0.42,1.33-0.42,2.08c0,0.74,0.14,1.43,0.42,2.07
		c0.28,0.64,0.67,1.19,1.16,1.65s1.07,0.83,1.74,1.09c0.67,0.27,1.4,0.4,2.18,0.4c0.78,0,1.51-0.13,2.17-0.4
		c0.67-0.27,1.24-0.63,1.73-1.09c0.49-0.46,0.87-1.01,1.14-1.65c0.27-0.64,0.41-1.33,0.41-2.07c0-0.75-0.13-1.45-0.41-2.08
		C11.23,45.1,10.85,44.55,10.36,44.09z M10.48,49.47c-0.22,0.51-0.52,0.96-0.9,1.34c-0.38,0.38-0.84,0.68-1.37,0.9
		c-0.53,0.22-1.11,0.33-1.74,0.33c-0.63,0-1.22-0.11-1.75-0.33c-0.53-0.22-0.99-0.52-1.38-0.9c-0.39-0.38-0.69-0.83-0.92-1.34
		c-0.22-0.52-0.33-1.07-0.33-1.67c0-0.62,0.11-1.18,0.34-1.7c0.23-0.52,0.54-0.97,0.93-1.34c0.39-0.37,0.86-0.66,1.39-0.87
		c0.54-0.21,1.11-0.31,1.72-0.31c0.63,0,1.21,0.11,1.74,0.33c0.53,0.22,0.99,0.52,1.37,0.9c0.39,0.38,0.69,0.83,0.9,1.35
		c0.22,0.52,0.33,1.07,0.33,1.67C10.81,48.41,10.7,48.96,10.48,49.47z"/>
	<path d="M7.27,46.95H6.48l-1.13-1.83H4.02l1.27,2.05c-0.3,0.11-0.53,0.32-0.72,0.62c-0.18,0.3-0.27,0.61-0.27,0.95
		c0,0.22,0.04,0.44,0.13,0.65c0.09,0.21,0.21,0.41,0.36,0.58c0.15,0.17,0.33,0.31,0.54,0.42c0.21,0.11,0.44,0.16,0.7,0.16h2.4v-5.43
		H7.27V46.95z M7.27,49.52H6.16c-0.19,0-0.35-0.06-0.49-0.19C5.52,49.2,5.45,49,5.45,48.74c0-0.25,0.06-0.44,0.19-0.57
		c0.12-0.14,0.29-0.2,0.49-0.2h1.13V49.52z"/>
</g>
</svg>
